<svg xmlns="http://www.w3.org/2000/svg" viewBox="0 0 1500 1000" width="1500" height="1000" role="img" aria-labelledby="t d"><title id="t">Arena teknik resim</title><desc id="d">Üstten plan, ön ve yan görünüş; ölçüler milimetre; koordinat merkezi arenanın ortasıdır.</desc><defs><marker id="ar" viewBox="0 0 10 10" refX="9" refY="5" markerWidth="7" markerHeight="7" orient="auto-start-reverse"><path d="M0 0 L10 5 L0 10 z" fill="#b3261e"/></marker></defs><rect width="1500" height="1000" fill="#f7f5ee"/>
<text x="470.0" y="52.0" font-family="Atkinson Hyperlegible, 'Segoe UI', Arial, sans-serif" font-size="17" text-anchor="middle" fill="#1d2b2a" font-weight="700">ÜSTTEN PLAN</text>
<line x1="130.0" y1="860.0" x2="130.0" y2="180.0" stroke="#d8d3c4" stroke-width="0.6" />
<line x1="130.0" y1="860.0" x2="810.0" y2="860.0" stroke="#d8d3c4" stroke-width="0.6" />
<line x1="215.0" y1="860.0" x2="215.0" y2="180.0" stroke="#d8d3c4" stroke-width="0.6" />
<line x1="130.0" y1="775.0" x2="810.0" y2="775.0" stroke="#d8d3c4" stroke-width="0.6" />
<line x1="300.0" y1="860.0" x2="300.0" y2="180.0" stroke="#d8d3c4" stroke-width="0.6" />
<line x1="130.0" y1="690.0" x2="810.0" y2="690.0" stroke="#d8d3c4" stroke-width="0.6" />
<line x1="385.0" y1="860.0" x2="385.0" y2="180.0" stroke="#d8d3c4" stroke-width="0.6" />
<line x1="130.0" y1="605.0" x2="810.0" y2="605.0" stroke="#d8d3c4" stroke-width="0.6" />
<line x1="470.0" y1="860.0" x2="470.0" y2="180.0" stroke="#d8d3c4" stroke-width="0.6" />
<line x1="130.0" y1="520.0" x2="810.0" y2="520.0" stroke="#d8d3c4" stroke-width="0.6" />
<line x1="555.0" y1="860.0" x2="555.0" y2="180.0" stroke="#d8d3c4" stroke-width="0.6" />
<line x1="130.0" y1="435.0" x2="810.0" y2="435.0" stroke="#d8d3c4" stroke-width="0.6" />
<line x1="640.0" y1="860.0" x2="640.0" y2="180.0" stroke="#d8d3c4" stroke-width="0.6" />
<line x1="130.0" y1="350.0" x2="810.0" y2="350.0" stroke="#d8d3c4" stroke-width="0.6" />
<line x1="725.0" y1="860.0" x2="725.0" y2="180.0" stroke="#d8d3c4" stroke-width="0.6" />
<line x1="130.0" y1="265.0" x2="810.0" y2="265.0" stroke="#d8d3c4" stroke-width="0.6" />
<line x1="810.0" y1="860.0" x2="810.0" y2="180.0" stroke="#d8d3c4" stroke-width="0.6" />
<line x1="130.0" y1="180.0" x2="810.0" y2="180.0" stroke="#d8d3c4" stroke-width="0.6" />
<rect x="123.9" y="173.9" width="692.2" height="692.2" rx="0" fill="#c9a878" stroke="#1d2b2a" stroke-width="1.5"/>
<rect x="130.0" y="180.0" width="680.0" height="680.0" rx="0" fill="#efece2" stroke="#1d2b2a" stroke-width="1.5"/>
<rect x="597.5" y="375.5" width="51.0" height="51.0" rx="0" fill="#6fa8dc" stroke="#1d2b2a" stroke-width="1.5"/>
<circle cx="351.0" cy="350.0" r="20.4" fill="#e08a7b" stroke="#1d2b2a" stroke-width="1.5"/>
<circle cx="572.0" cy="656.0" r="25.5" fill="#f3c1a4" stroke="#1d2b2a" stroke-width="1.2" stroke-dasharray="4 3"/>
<line x1="572.0" y1="656.0" x2="561.4" y2="632.8" stroke="#1d2b2a" stroke-width="1.5" />
<circle cx="300.0" cy="520.0" r="25.5" fill="#f3c1a4" stroke="#1d2b2a" stroke-width="1.2" stroke-dasharray="4 3"/>
<line x1="300.0" y1="520.0" x2="322.4" y2="507.8" stroke="#1d2b2a" stroke-width="1.5" />
<circle cx="266.0" cy="724.0" r="8.0" fill="#2f6fbd" stroke="#1d2b2a" stroke-width="1"/>
<line x1="266.0" y1="724.0" x2="294.9" y2="695.2" stroke="#2f6fbd" stroke-width="2.2" marker-end="url(#ar)"/>
<line x1="470.0" y1="520.0" x2="572.0" y2="520.0" stroke="#1d2b2a" stroke-width="1.2" marker-end="url(#ar)"/>
<line x1="470.0" y1="520.0" x2="470.0" y2="418.0" stroke="#1d2b2a" stroke-width="1.2" marker-end="url(#ar)"/>
<text x="578.0" y="525.0" font-family="Atkinson Hyperlegible, 'Segoe UI', Arial, sans-serif" font-size="14" text-anchor="start" fill="#1d2b2a" font-weight="400">x</text>
<text x="476.0" y="414.0" font-family="Atkinson Hyperlegible, 'Segoe UI', Arial, sans-serif" font-size="14" text-anchor="start" fill="#1d2b2a" font-weight="400">y</text>
<circle cx="470.0" cy="520.0" r="4.0" fill="#1d2b2a" stroke="#1d2b2a" stroke-width="1"/>
<text x="478.0" y="538.0" font-family="Atkinson Hyperlegible, 'Segoe UI', Arial, sans-serif" font-size="12" text-anchor="start" fill="#1d2b2a" font-weight="400">(0,0) merkez</text>
<text x="623.0" y="346.0" font-family="Atkinson Hyperlegible, 'Segoe UI', Arial, sans-serif" font-size="13" text-anchor="middle" fill="#1d2b2a" font-weight="400">kutu 150×150</text>
<text x="623.0" y="359.0" font-family="Atkinson Hyperlegible, 'Segoe UI', Arial, sans-serif" font-size="12" text-anchor="middle" fill="#555" font-weight="400">(450, 350)</text>
<text x="351.0" y="310.0" font-family="Atkinson Hyperlegible, 'Segoe UI', Arial, sans-serif" font-size="13" text-anchor="middle" fill="#1d2b2a" font-weight="400">silindir Ø120</text>
<text x="351.0" y="323.0" font-family="Atkinson Hyperlegible, 'Segoe UI', Arial, sans-serif" font-size="12" text-anchor="middle" fill="#555" font-weight="400">(-350, 500)</text>
<text x="278.0" y="752.0" font-family="Atkinson Hyperlegible, 'Segoe UI', Arial, sans-serif" font-size="12" text-anchor="start" fill="#2f6fbd" font-weight="400">öğrenen robot başlangıcı (-600,-600), yön 45°</text>
<text x="596.0" y="660.0" font-family="Atkinson Hyperlegible, 'Segoe UI', Arial, sans-serif" font-size="12" text-anchor="start" fill="#1d2b2a" font-weight="400">Pico 1 (300,-400)</text>
<text x="324.0" y="542.0" font-family="Atkinson Hyperlegible, 'Segoe UI', Arial, sans-serif" font-size="12" text-anchor="start" fill="#1d2b2a" font-weight="400">Pico 2 (-500, 0)</text>
<line x1="130.0" y1="870.1" x2="130.0" y2="918.1" stroke="#b3261e" stroke-width="0.8" />
<line x1="810.0" y1="870.1" x2="810.0" y2="918.1" stroke="#b3261e" stroke-width="0.8" />
<line x1="130.0" y1="912.1" x2="810.0" y2="912.1" stroke="#b3261e" stroke-width="1.1" marker-start="url(#ar)" marker-end="url(#ar)"/>
<text x="470.0" y="907.1" font-family="Atkinson Hyperlegible, 'Segoe UI', Arial, sans-serif" font-size="14" text-anchor="middle" fill="#b3261e" font-weight="400">iç ölçü 2000</text>
<line x1="123.9" y1="870.1" x2="123.9" y2="956.1" stroke="#b3261e" stroke-width="0.8" />
<line x1="816.1" y1="870.1" x2="816.1" y2="956.1" stroke="#b3261e" stroke-width="0.8" />
<line x1="123.9" y1="950.1" x2="816.1" y2="950.1" stroke="#b3261e" stroke-width="1.1" marker-start="url(#ar)" marker-end="url(#ar)"/>
<text x="470.0" y="945.1" font-family="Atkinson Hyperlegible, 'Segoe UI', Arial, sans-serif" font-size="14" text-anchor="middle" fill="#b3261e" font-weight="400">dış ölçü 2036</text>
<line x1="125.9" y1="180.0" x2="73.9" y2="180.0" stroke="#b3261e" stroke-width="0.8" />
<line x1="125.9" y1="860.0" x2="73.9" y2="860.0" stroke="#b3261e" stroke-width="0.8" />
<line x1="79.9" y1="180.0" x2="79.9" y2="860.0" stroke="#b3261e" stroke-width="1.1" marker-start="url(#ar)" marker-end="url(#ar)"/>
<text x="73.9" y="525.0" font-family="Atkinson Hyperlegible, 'Segoe UI', Arial, sans-serif" font-size="14" text-anchor="end" fill="#b3261e" font-weight="400">2000</text>
<text x="1060.0" y="52.0" font-family="Atkinson Hyperlegible, 'Segoe UI', Arial, sans-serif" font-size="17" text-anchor="middle" fill="#1d2b2a" font-weight="700">DUVAR KESİTİ</text>
<rect x="1000.0" y="110.0" width="39.6" height="264.0" rx="0" fill="#c9a878" stroke="#1d2b2a" stroke-width="2"/>
<line x1="940.0" y1="374.0" x2="1200.0" y2="374.0" stroke="#1d2b2a" stroke-width="1.5" />
<line x1="1000.0" y1="110.0" x2="1000.0" y2="88.0" stroke="#b3261e" stroke-width="0.8" />
<line x1="1039.6" y1="110.0" x2="1039.6" y2="88.0" stroke="#b3261e" stroke-width="0.8" />
<line x1="1000.0" y1="94.0" x2="1039.6" y2="94.0" stroke="#b3261e" stroke-width="1.1" marker-start="url(#ar)" marker-end="url(#ar)"/>
<text x="1019.8" y="89.0" font-family="Atkinson Hyperlegible, 'Segoe UI', Arial, sans-serif" font-size="14" text-anchor="middle" fill="#b3261e" font-weight="400">18</text>
<line x1="1039.6" y1="110.0" x2="1095.6" y2="110.0" stroke="#b3261e" stroke-width="0.8" />
<line x1="1039.6" y1="374.0" x2="1095.6" y2="374.0" stroke="#b3261e" stroke-width="0.8" />
<line x1="1089.6" y1="110.0" x2="1089.6" y2="374.0" stroke="#b3261e" stroke-width="1.1" marker-start="url(#ar)" marker-end="url(#ar)"/>
<text x="1095.6" y="247.0" font-family="Atkinson Hyperlegible, 'Segoe UI', Arial, sans-serif" font-size="14" text-anchor="start" fill="#b3261e" font-weight="400">120</text>
<text x="1090.0" y="170.0" font-family="Atkinson Hyperlegible, 'Segoe UI', Arial, sans-serif" font-size="14" text-anchor="start" fill="#555" font-weight="400">MDF</text>
<text x="944.0" y="396.0" font-family="Atkinson Hyperlegible, 'Segoe UI', Arial, sans-serif" font-size="12" text-anchor="start" fill="#555" font-weight="400">zemin</text>
<text x="1090.0" y="424.0" font-family="Atkinson Hyperlegible, 'Segoe UI', Arial, sans-serif" font-size="15" text-anchor="middle" fill="#1d2b2a" font-weight="700">ÖNDEN GÖRÜNÜŞ (x ekseni boyunca)</text>
<line x1="760.0" y1="506.0" x2="1420.0" y2="506.0" stroke="#1d2b2a" stroke-width="1.5" />
<rect x="784.6" y="470.0" width="5.4" height="36.0" rx="0" fill="#c9a878" stroke="#1d2b2a" stroke-width="1"/>
<rect x="1390.0" y="470.0" width="5.4" height="36.0" rx="0" fill="#c9a878" stroke="#1d2b2a" stroke-width="1"/>
<rect x="1202.5" y="470.0" width="45.0" height="36.0" rx="0" fill="#6fa8dc" stroke="#1d2b2a" stroke-width="1"/>
<text x="1225.0" y="464.0" font-family="Atkinson Hyperlegible, 'Segoe UI', Arial, sans-serif" font-size="11" text-anchor="middle" fill="#555" font-weight="400">kutu</text>
<rect x="967.0" y="470.0" width="36.0" height="36.0" rx="0" fill="#e08a7b" stroke="#1d2b2a" stroke-width="1"/>
<text x="985.0" y="464.0" font-family="Atkinson Hyperlegible, 'Segoe UI', Arial, sans-serif" font-size="11" text-anchor="middle" fill="#555" font-weight="400">silindir</text>
<line x1="1395.4" y1="470.0" x2="1436.0" y2="470.0" stroke="#b3261e" stroke-width="0.8" />
<line x1="1395.4" y1="506.0" x2="1436.0" y2="506.0" stroke="#b3261e" stroke-width="0.8" />
<line x1="1430.0" y1="470.0" x2="1430.0" y2="506.0" stroke="#b3261e" stroke-width="1.1" marker-start="url(#ar)" marker-end="url(#ar)"/>
<text x="1436.0" y="493.0" font-family="Atkinson Hyperlegible, 'Segoe UI', Arial, sans-serif" font-size="14" text-anchor="start" fill="#b3261e" font-weight="400">120</text>
<text x="1090.0" y="654.0" font-family="Atkinson Hyperlegible, 'Segoe UI', Arial, sans-serif" font-size="15" text-anchor="middle" fill="#1d2b2a" font-weight="700">YANDAN GÖRÜNÜŞ (y ekseni boyunca)</text>
<line x1="760.0" y1="736.0" x2="1420.0" y2="736.0" stroke="#1d2b2a" stroke-width="1.5" />
<rect x="784.6" y="700.0" width="5.4" height="36.0" rx="0" fill="#c9a878" stroke="#1d2b2a" stroke-width="1"/>
<rect x="1390.0" y="700.0" width="5.4" height="36.0" rx="0" fill="#c9a878" stroke="#1d2b2a" stroke-width="1"/>
<rect x="1172.5" y="700.0" width="45.0" height="36.0" rx="0" fill="#6fa8dc" stroke="#1d2b2a" stroke-width="1"/>
<text x="1195.0" y="694.0" font-family="Atkinson Hyperlegible, 'Segoe UI', Arial, sans-serif" font-size="11" text-anchor="middle" fill="#555" font-weight="400">kutu</text>
<rect x="1222.0" y="700.0" width="36.0" height="36.0" rx="0" fill="#e08a7b" stroke="#1d2b2a" stroke-width="1"/>
<text x="1240.0" y="694.0" font-family="Atkinson Hyperlegible, 'Segoe UI', Arial, sans-serif" font-size="11" text-anchor="middle" fill="#555" font-weight="400">silindir</text>
<line x1="1395.4" y1="700.0" x2="1436.0" y2="700.0" stroke="#b3261e" stroke-width="0.8" />
<line x1="1395.4" y1="736.0" x2="1436.0" y2="736.0" stroke="#b3261e" stroke-width="0.8" />
<line x1="1430.0" y1="700.0" x2="1430.0" y2="736.0" stroke="#b3261e" stroke-width="1.1" marker-start="url(#ar)" marker-end="url(#ar)"/>
<text x="1436.0" y="723.0" font-family="Atkinson Hyperlegible, 'Segoe UI', Arial, sans-serif" font-size="14" text-anchor="start" fill="#b3261e" font-weight="400">120</text>
<text x="930.0" y="820.0" font-family="Atkinson Hyperlegible, 'Segoe UI', Arial, sans-serif" font-size="13" text-anchor="start" fill="#1d2b2a" font-weight="400">Hareketli engeller: 2 Pico robot (Ø150, 0,20 m/s’ye kadar)</text>
<text x="930.0" y="840.0" font-family="Atkinson Hyperlegible, 'Segoe UI', Arial, sans-serif" font-size="13" text-anchor="start" fill="#1d2b2a" font-weight="400">Duvar yüksekliği 120 mm: ToF (yerden ≈ 51 mm) duvarı görür.</text>
<text x="930.0" y="860.0" font-family="Atkinson Hyperlegible, 'Segoe UI', Arial, sans-serif" font-size="13" text-anchor="start" fill="#1d2b2a" font-weight="400">Zemin: düz ve mat (parlak yüzey ToF’u bozabilir).</text>
<rect x="10.0" y="10.0" width="1480.0" height="980.0" rx="0" fill="none" stroke="#1d2b2a" stroke-width="2"/>
<rect x="980.0" y="890.0" width="510.0" height="100.0" rx="0" fill="#f7f5ee" stroke="#1d2b2a" stroke-width="1.5"/>
<line x1="980.0" y1="928.0" x2="1490.0" y2="928.0" stroke="#1d2b2a" stroke-width="1" />
<text x="992.0" y="918.0" font-family="Atkinson Hyperlegible, 'Segoe UI', Arial, sans-serif" font-size="22" text-anchor="start" fill="#1d2b2a" font-weight="700">Arena – teknik resim</text>
<text x="992.0" y="948.0" font-family="Atkinson Hyperlegible, 'Segoe UI', Arial, sans-serif" font-size="14" text-anchor="start" fill="#1d2b2a" font-weight="400">Ölçüler milimetre; merkez (0,0), x sağa, y yukarı</text>
<text x="992.0" y="968.0" font-family="Atkinson Hyperlegible, 'Segoe UI', Arial, sans-serif" font-size="13" text-anchor="start" fill="#1d2b2a" font-weight="400">Ölçek: plan 0.34 px = 1 mm</text>
<text x="992.0" y="984.0" font-family="Atkinson Hyperlegible, 'Segoe UI', Arial, sans-serif" font-size="12" text-anchor="start" fill="#555" font-weight="400">Kaynak: src/arena_sim/worlds/arena.sdf, pai_gym/scenarios/pico2.json</text></svg>