  0
SECTION
  2
BLOCKS
  0
ENDSEC
  0
SECTION
  2
ENTITIES
  0
LINE
  8
0
 10
27.6257
 20
-27.4507
 11
28.2361
 21
-27.3042
  0
LINE
  8
0
 10
28.2361
 20
-27.3042
 11
28.8159
 21
-27.064
  0
LINE
  8
0
 10
28.8159
 20
-27.064
 11
29.3511
 21
-26.7361
  0
LINE
  8
0
 10
29.3511
 20
-26.7361
 11
29.8284
 21
-26.3284
  0
LINE
  8
0
 10
29.8284
 20
-26.3284
 11
30.2361
 21
-25.8511
  0
LINE
  8
0
 10
30.2361
 20
-25.8511
 11
30.564
 21
-25.3159
  0
LINE
  8
0
 10
30.564
 20
-25.3159
 11
30.8042
 21
-24.7361
  0
LINE
  8
0
 10
30.8042
 20
-24.7361
 11
30.9507
 21
-24.1257
  0
LINE
  8
0
 10
30.9507
 20
-24.1257
 11
31
 21
-23.5
  0
LINE
  8
0
 10
31
 20
-23.5
 11
31
 21
23.5
  0
LINE
  8
0
 10
31
 20
23.5
 11
30.9507
 21
24.1257
  0
LINE
  8
0
 10
30.9507
 20
24.1257
 11
30.8042
 21
24.7361
  0
LINE
  8
0
 10
30.8042
 20
24.7361
 11
30.564
 21
25.3159
  0
LINE
  8
0
 10
30.564
 20
25.3159
 11
30.2361
 21
25.8511
  0
LINE
  8
0
 10
30.2361
 20
25.8511
 11
29.8284
 21
26.3284
  0
LINE
  8
0
 10
29.8284
 20
26.3284
 11
29.3511
 21
26.7361
  0
LINE
  8
0
 10
29.3511
 20
26.7361
 11
28.8159
 21
27.064
  0
LINE
  8
0
 10
28.8159
 20
27.064
 11
28.2361
 21
27.3042
  0
LINE
  8
0
 10
28.2361
 20
27.3042
 11
27.6257
 21
27.4507
  0
LINE
  8
0
 10
27.6257
 20
27.4507
 11
27
 21
27.5
  0
LINE
  8
0
 10
27
 20
27.5
 11
-32
 21
27.5
  0
LINE
  8
0
 10
-32
 20
27.5
 11
-32.6257
 21
27.4507
  0
LINE
  8
0
 10
-32.6257
 20
27.4507
 11
-33.2361
 21
27.3042
  0
LINE
  8
0
 10
-33.2361
 20
27.3042
 11
-33.8159
 21
27.064
  0
LINE
  8
0
 10
-33.8159
 20
27.064
 11
-34.3511
 21
26.7361
  0
LINE
  8
0
 10
-34.3511
 20
26.7361
 11
-34.8284
 21
26.3284
  0
LINE
  8
0
 10
-34.8284
 20
26.3284
 11
-35.2361
 21
25.8511
  0
LINE
  8
0
 10
-35.2361
 20
25.8511
 11
-35.564
 21
25.3159
  0
LINE
  8
0
 10
-35.564
 20
25.3159
 11
-35.8042
 21
24.7361
  0
LINE
  8
0
 10
-35.8042
 20
24.7361
 11
-35.9507
 21
24.1257
  0
LINE
  8
0
 10
-35.9507
 20
24.1257
 11
-36
 21
23.5
  0
LINE
  8
0
 10
-36
 20
23.5
 11
-36
 21
-23.5
  0
LINE
  8
0
 10
-36
 20
-23.5
 11
-35.9507
 21
-24.1257
  0
LINE
  8
0
 10
-35.9507
 20
-24.1257
 11
-35.8042
 21
-24.7361
  0
LINE
  8
0
 10
-35.8042
 20
-24.7361
 11
-35.564
 21
-25.3159
  0
LINE
  8
0
 10
-35.564
 20
-25.3159
 11
-35.2361
 21
-25.8511
  0
LINE
  8
0
 10
-35.2361
 20
-25.8511
 11
-34.8284
 21
-26.3284
  0
LINE
  8
0
 10
-34.8284
 20
-26.3284
 11
-34.3511
 21
-26.7361
  0
LINE
  8
0
 10
-34.3511
 20
-26.7361
 11
-33.8159
 21
-27.064
  0
LINE
  8
0
 10
-33.8159
 20
-27.064
 11
-33.2361
 21
-27.3042
  0
LINE
  8
0
 10
-33.2361
 20
-27.3042
 11
-32.6257
 21
-27.4507
  0
LINE
  8
0
 10
-32.6257
 20
-27.4507
 11
-32
 21
-27.5
  0
LINE
  8
0
 10
-32
 20
-27.5
 11
27
 21
-27.5
  0
LINE
  8
0
 10
27
 20
-27.5
 11
27.6257
 21
-27.4507
  0
LINE
  8
0
 10
13.7153
 20
22.9375
 11
13.45
 21
23.0474
  0
LINE
  8
0
 10
13.45
 20
23.0474
 11
13.2222
 21
23.2222
  0
LINE
  8
0
 10
13.2222
 20
23.2222
 11
13.0474
 21
23.45
  0
LINE
  8
0
 10
13.0474
 20
23.45
 11
12.9375
 21
23.7153
  0
LINE
  8
0
 10
12.9375
 20
23.7153
 11
12.9
 21
24
  0
LINE
  8
0
 10
12.9
 20
24
 11
12.9375
 21
24.2847
  0
LINE
  8
0
 10
12.9375
 20
24.2847
 11
13.0474
 21
24.55
  0
LINE
  8
0
 10
13.0474
 20
24.55
 11
13.2222
 21
24.7778
  0
LINE
  8
0
 10
13.2222
 20
24.7778
 11
13.45
 21
24.9526
  0
LINE
  8
0
 10
13.45
 20
24.9526
 11
13.7153
 21
25.0625
  0
LINE
  8
0
 10
13.7153
 20
25.0625
 11
14
 21
25.1
  0
LINE
  8
0
 10
14
 20
25.1
 11
14.2847
 21
25.0625
  0
LINE
  8
0
 10
14.2847
 20
25.0625
 11
14.55
 21
24.9526
  0
LINE
  8
0
 10
14.55
 20
24.9526
 11
14.7778
 21
24.7778
  0
LINE
  8
0
 10
14.7778
 20
24.7778
 11
14.9526
 21
24.55
  0
LINE
  8
0
 10
14.9526
 20
24.55
 11
15.0625
 21
24.2847
  0
LINE
  8
0
 10
15.0625
 20
24.2847
 11
15.1
 21
24
  0
LINE
  8
0
 10
15.1
 20
24
 11
15.0625
 21
23.7153
  0
LINE
  8
0
 10
15.0625
 20
23.7153
 11
14.9526
 21
23.45
  0
LINE
  8
0
 10
14.9526
 20
23.45
 11
14.7778
 21
23.2222
  0
LINE
  8
0
 10
14.7778
 20
23.2222
 11
14.55
 21
23.0474
  0
LINE
  8
0
 10
14.55
 20
23.0474
 11
14.2847
 21
22.9375
  0
LINE
  8
0
 10
14.2847
 20
22.9375
 11
14
 21
22.9
  0
LINE
  8
0
 10
14
 20
22.9
 11
13.7153
 21
22.9375
  0
LINE
  8
0
 10
-32.2847
 20
22.9375
 11
-32.55
 21
23.0474
  0
LINE
  8
0
 10
-32.55
 20
23.0474
 11
-32.7778
 21
23.2222
  0
LINE
  8
0
 10
-32.7778
 20
23.2222
 11
-32.9526
 21
23.45
  0
LINE
  8
0
 10
-32.9526
 20
23.45
 11
-33.0625
 21
23.7153
  0
LINE
  8
0
 10
-33.0625
 20
23.7153
 11
-33.1
 21
24
  0
LINE
  8
0
 10
-33.1
 20
24
 11
-33.0625
 21
24.2847
  0
LINE
  8
0
 10
-33.0625
 20
24.2847
 11
-32.9526
 21
24.55
  0
LINE
  8
0
 10
-32.9526
 20
24.55
 11
-32.7778
 21
24.7778
  0
LINE
  8
0
 10
-32.7778
 20
24.7778
 11
-32.55
 21
24.9526
  0
LINE
  8
0
 10
-32.55
 20
24.9526
 11
-32.2847
 21
25.0625
  0
LINE
  8
0
 10
-32.2847
 20
25.0625
 11
-32
 21
25.1
  0
LINE
  8
0
 10
-32
 20
25.1
 11
-31.7153
 21
25.0625
  0
LINE
  8
0
 10
-31.7153
 20
25.0625
 11
-31.45
 21
24.9526
  0
LINE
  8
0
 10
-31.45
 20
24.9526
 11
-31.2222
 21
24.7778
  0
LINE
  8
0
 10
-31.2222
 20
24.7778
 11
-31.0474
 21
24.55
  0
LINE
  8
0
 10
-31.0474
 20
24.55
 11
-30.9375
 21
24.2847
  0
LINE
  8
0
 10
-30.9375
 20
24.2847
 11
-30.9
 21
24
  0
LINE
  8
0
 10
-30.9
 20
24
 11
-30.9375
 21
23.7153
  0
LINE
  8
0
 10
-30.9375
 20
23.7153
 11
-31.0474
 21
23.45
  0
LINE
  8
0
 10
-31.0474
 20
23.45
 11
-31.2222
 21
23.2222
  0
LINE
  8
0
 10
-31.2222
 20
23.2222
 11
-31.45
 21
23.0474
  0
LINE
  8
0
 10
-31.45
 20
23.0474
 11
-31.7153
 21
22.9375
  0
LINE
  8
0
 10
-31.7153
 20
22.9375
 11
-32
 21
22.9
  0
LINE
  8
0
 10
-32
 20
22.9
 11
-32.2847
 21
22.9375
  0
LINE
  8
0
 10
19.3993
 20
19.7327
 11
21.3045
 21
20.8327
  0
LINE
  8
0
 10
21.3045
 20
20.8327
 11
27.4045
 21
10.2672
  0
LINE
  8
0
 10
27.4045
 20
10.2672
 11
25.4993
 21
9.16724
  0
LINE
  8
0
 10
25.4993
 20
9.16724
 11
19.3993
 21
19.7327
  0
LINE
  8
0
 10
12.3
 20
15.1
 11
12.3
 21
16.9
  0
LINE
  8
0
 10
12.3
 20
16.9
 11
15.7
 21
16.9
  0
LINE
  8
0
 10
15.7
 20
16.9
 11
15.7
 21
15.1
  0
LINE
  8
0
 10
15.7
 20
15.1
 11
12.3
 21
15.1
  0
LINE
  8
0
 10
-1.7
 20
15.1
 11
-1.7
 21
16.9
  0
LINE
  8
0
 10
-1.7
 20
16.9
 11
1.7
 21
16.9
  0
LINE
  8
0
 10
1.7
 20
16.9
 11
1.7
 21
15.1
  0
LINE
  8
0
 10
1.7
 20
15.1
 11
-1.7
 21
15.1
  0
LINE
  8
0
 10
-30.2847
 20
3.93747
 11
-30.55
 21
4.04736
  0
LINE
  8
0
 10
-30.55
 20
4.04736
 11
-30.7778
 21
4.22217
  0
LINE
  8
0
 10
-30.7778
 20
4.22217
 11
-30.9526
 21
4.45
  0
LINE
  8
0
 10
-30.9526
 20
4.45
 11
-31.0625
 21
4.71529
  0
LINE
  8
0
 10
-31.0625
 20
4.71529
 11
-31.1
 21
5
  0
LINE
  8
0
 10
-31.1
 20
5
 11
-31.0625
 21
5.2847
  0
LINE
  8
0
 10
-31.0625
 20
5.2847
 11
-30.9526
 21
5.54999
  0
LINE
  8
0
 10
-30.9526
 20
5.54999
 11
-30.7778
 21
5.77782
  0
LINE
  8
0
 10
-30.7778
 20
5.77782
 11
-30.55
 21
5.95262
  0
LINE
  8
0
 10
-30.55
 20
5.95262
 11
-30.2847
 21
6.06252
  0
LINE
  8
0
 10
-30.2847
 20
6.06252
 11
-30
 21
6.09999
  0
LINE
  8
0
 10
-30
 20
6.09999
 11
-29.7153
 21
6.06252
  0
LINE
  8
0
 10
-29.7153
 20
6.06252
 11
-29.45
 21
5.95262
  0
LINE
  8
0
 10
-29.45
 20
5.95262
 11
-29.2222
 21
5.77782
  0
LINE
  8
0
 10
-29.2222
 20
5.77782
 11
-29.0474
 21
5.54999
  0
LINE
  8
0
 10
-29.0474
 20
5.54999
 11
-28.9375
 21
5.2847
  0
LINE
  8
0
 10
-28.9375
 20
5.2847
 11
-28.9
 21
5
  0
LINE
  8
0
 10
-28.9
 20
5
 11
-28.9375
 21
4.71529
  0
LINE
  8
0
 10
-28.9375
 20
4.71529
 11
-29.0474
 21
4.45
  0
LINE
  8
0
 10
-29.0474
 20
4.45
 11
-29.2222
 21
4.22217
  0
LINE
  8
0
 10
-29.2222
 20
4.22217
 11
-29.45
 21
4.04736
  0
LINE
  8
0
 10
-29.45
 20
4.04736
 11
-29.7153
 21
3.93747
  0
LINE
  8
0
 10
-29.7153
 20
3.93747
 11
-30
 21
3.89999
  0
LINE
  8
0
 10
-30
 20
3.89999
 11
-30.2847
 21
3.93747
  0
LINE
  8
0
 10
25.9
 20
-6.09999
 11
25.9
 21
6.09999
  0
LINE
  8
0
 10
25.9
 20
6.09999
 11
28.1
 21
6.09999
  0
LINE
  8
0
 10
28.1
 20
6.09999
 11
28.1
 21
-6.09999
  0
LINE
  8
0
 10
28.1
 20
-6.09999
 11
25.9
 21
-6.09999
  0
LINE
  8
0
 10
-1.7
 20
3.09999
 11
-1.7
 21
4.89999
  0
LINE
  8
0
 10
-1.7
 20
4.89999
 11
1.7
 21
4.89999
  0
LINE
  8
0
 10
1.7
 20
4.89999
 11
1.7
 21
3.09999
  0
LINE
  8
0
 10
1.7
 20
3.09999
 11
-1.7
 21
3.09999
  0
LINE
  8
0
 10
12.3
 20
3.09999
 11
12.3
 21
4.89999
  0
LINE
  8
0
 10
12.3
 20
4.89999
 11
15.7
 21
4.89999
  0
LINE
  8
0
 10
15.7
 20
4.89999
 11
15.7
 21
3.09999
  0
LINE
  8
0
 10
15.7
 20
3.09999
 11
12.3
 21
3.09999
  0
LINE
  8
0
 10
-15.7
 20
-4.89999
 11
-15.7
 21
-3.09999
  0
LINE
  8
0
 10
-15.7
 20
-3.09999
 11
-12.3
 21
-3.09999
  0
LINE
  8
0
 10
-12.3
 20
-3.09999
 11
-12.3
 21
-4.89999
  0
LINE
  8
0
 10
-12.3
 20
-4.89999
 11
-15.7
 21
-4.89999
  0
LINE
  8
0
 10
-1.7
 20
-4.89999
 11
-1.7
 21
-3.09999
  0
LINE
  8
0
 10
-1.7
 20
-3.09999
 11
1.7
 21
-3.09999
  0
LINE
  8
0
 10
1.7
 20
-3.09999
 11
1.7
 21
-4.89999
  0
LINE
  8
0
 10
1.7
 20
-4.89999
 11
-1.7
 21
-4.89999
  0
LINE
  8
0
 10
-30.2847
 20
-6.06252
 11
-30.55
 21
-5.95262
  0
LINE
  8
0
 10
-30.55
 20
-5.95262
 11
-30.7778
 21
-5.77782
  0
LINE
  8
0
 10
-30.7778
 20
-5.77782
 11
-30.9526
 21
-5.54999
  0
LINE
  8
0
 10
-30.9526
 20
-5.54999
 11
-31.0625
 21
-5.2847
  0
LINE
  8
0
 10
-31.0625
 20
-5.2847
 11
-31.1
 21
-5
  0
LINE
  8
0
 10
-31.1
 20
-5
 11
-31.0625
 21
-4.71529
  0
LINE
  8
0
 10
-31.0625
 20
-4.71529
 11
-30.9526
 21
-4.45
  0
LINE
  8
0
 10
-30.9526
 20
-4.45
 11
-30.7778
 21
-4.22217
  0
LINE
  8
0
 10
-30.7778
 20
-4.22217
 11
-30.55
 21
-4.04736
  0
LINE
  8
0
 10
-30.55
 20
-4.04736
 11
-30.2847
 21
-3.93747
  0
LINE
  8
0
 10
-30.2847
 20
-3.93747
 11
-30
 21
-3.89999
  0
LINE
  8
0
 10
-30
 20
-3.89999
 11
-29.7153
 21
-3.93747
  0
LINE
  8
0
 10
-29.7153
 20
-3.93747
 11
-29.45
 21
-4.04736
  0
LINE
  8
0
 10
-29.45
 20
-4.04736
 11
-29.2222
 21
-4.22217
  0
LINE
  8
0
 10
-29.2222
 20
-4.22217
 11
-29.0474
 21
-4.45
  0
LINE
  8
0
 10
-29.0474
 20
-4.45
 11
-28.9375
 21
-4.71529
  0
LINE
  8
0
 10
-28.9375
 20
-4.71529
 11
-28.9
 21
-5
  0
LINE
  8
0
 10
-28.9
 20
-5
 11
-28.9375
 21
-5.2847
  0
LINE
  8
0
 10
-28.9375
 20
-5.2847
 11
-29.0474
 21
-5.54999
  0
LINE
  8
0
 10
-29.0474
 20
-5.54999
 11
-29.2222
 21
-5.77782
  0
LINE
  8
0
 10
-29.2222
 20
-5.77782
 11
-29.45
 21
-5.95262
  0
LINE
  8
0
 10
-29.45
 20
-5.95262
 11
-29.7153
 21
-6.06252
  0
LINE
  8
0
 10
-29.7153
 20
-6.06252
 11
-30
 21
-6.09999
  0
LINE
  8
0
 10
-30
 20
-6.09999
 11
-30.2847
 21
-6.06252
  0
LINE
  8
0
 10
19.3993
 20
-19.7327
 11
25.4993
 21
-9.16724
  0
LINE
  8
0
 10
25.4993
 20
-9.16724
 11
27.4045
 21
-10.2672
  0
LINE
  8
0
 10
27.4045
 20
-10.2672
 11
21.3045
 21
-20.8327
  0
LINE
  8
0
 10
21.3045
 20
-20.8327
 11
19.3993
 21
-19.7327
  0
LINE
  8
0
 10
-15.7
 20
-16.9
 11
-15.7
 21
-15.1
  0
LINE
  8
0
 10
-15.7
 20
-15.1
 11
-12.3
 21
-15.1
  0
LINE
  8
0
 10
-12.3
 20
-15.1
 11
-12.3
 21
-16.9
  0
LINE
  8
0
 10
-12.3
 20
-16.9
 11
-15.7
 21
-16.9
  0
LINE
  8
0
 10
-1.7
 20
-16.9
 11
-1.7
 21
-15.1
  0
LINE
  8
0
 10
-1.7
 20
-15.1
 11
1.7
 21
-15.1
  0
LINE
  8
0
 10
1.7
 20
-15.1
 11
1.7
 21
-16.9
  0
LINE
  8
0
 10
1.7
 20
-16.9
 11
-1.7
 21
-16.9
  0
LINE
  8
0
 10
-32.2847
 20
-25.0625
 11
-32.55
 21
-24.9526
  0
LINE
  8
0
 10
-32.55
 20
-24.9526
 11
-32.7778
 21
-24.7778
  0
LINE
  8
0
 10
-32.7778
 20
-24.7778
 11
-32.9526
 21
-24.55
  0
LINE
  8
0
 10
-32.9526
 20
-24.55
 11
-33.0625
 21
-24.2847
  0
LINE
  8
0
 10
-33.0625
 20
-24.2847
 11
-33.1
 21
-24
  0
LINE
  8
0
 10
-33.1
 20
-24
 11
-33.0625
 21
-23.7153
  0
LINE
  8
0
 10
-33.0625
 20
-23.7153
 11
-32.9526
 21
-23.45
  0
LINE
  8
0
 10
-32.9526
 20
-23.45
 11
-32.7778
 21
-23.2222
  0
LINE
  8
0
 10
-32.7778
 20
-23.2222
 11
-32.55
 21
-23.0474
  0
LINE
  8
0
 10
-32.55
 20
-23.0474
 11
-32.2847
 21
-22.9375
  0
LINE
  8
0
 10
-32.2847
 20
-22.9375
 11
-32
 21
-22.9
  0
LINE
  8
0
 10
-32
 20
-22.9
 11
-31.7153
 21
-22.9375
  0
LINE
  8
0
 10
-31.7153
 20
-22.9375
 11
-31.45
 21
-23.0474
  0
LINE
  8
0
 10
-31.45
 20
-23.0474
 11
-31.2222
 21
-23.2222
  0
LINE
  8
0
 10
-31.2222
 20
-23.2222
 11
-31.0474
 21
-23.45
  0
LINE
  8
0
 10
-31.0474
 20
-23.45
 11
-30.9375
 21
-23.7153
  0
LINE
  8
0
 10
-30.9375
 20
-23.7153
 11
-30.9
 21
-24
  0
LINE
  8
0
 10
-30.9
 20
-24
 11
-30.9375
 21
-24.2847
  0
LINE
  8
0
 10
-30.9375
 20
-24.2847
 11
-31.0474
 21
-24.55
  0
LINE
  8
0
 10
-31.0474
 20
-24.55
 11
-31.2222
 21
-24.7778
  0
LINE
  8
0
 10
-31.2222
 20
-24.7778
 11
-31.45
 21
-24.9526
  0
LINE
  8
0
 10
-31.45
 20
-24.9526
 11
-31.7153
 21
-25.0625
  0
LINE
  8
0
 10
-31.7153
 20
-25.0625
 11
-32
 21
-25.1
  0
LINE
  8
0
 10
-32
 20
-25.1
 11
-32.2847
 21
-25.0625
  0
LINE
  8
0
 10
13.7153
 20
-25.0625
 11
13.45
 21
-24.9526
  0
LINE
  8
0
 10
13.45
 20
-24.9526
 11
13.2222
 21
-24.7778
  0
LINE
  8
0
 10
13.2222
 20
-24.7778
 11
13.0474
 21
-24.55
  0
LINE
  8
0
 10
13.0474
 20
-24.55
 11
12.9375
 21
-24.2847
  0
LINE
  8
0
 10
12.9375
 20
-24.2847
 11
12.9
 21
-24
  0
LINE
  8
0
 10
12.9
 20
-24
 11
12.9375
 21
-23.7153
  0
LINE
  8
0
 10
12.9375
 20
-23.7153
 11
13.0474
 21
-23.45
  0
LINE
  8
0
 10
13.0474
 20
-23.45
 11
13.2222
 21
-23.2222
  0
LINE
  8
0
 10
13.2222
 20
-23.2222
 11
13.45
 21
-23.0474
  0
LINE
  8
0
 10
13.45
 20
-23.0474
 11
13.7153
 21
-22.9375
  0
LINE
  8
0
 10
13.7153
 20
-22.9375
 11
14
 21
-22.9
  0
LINE
  8
0
 10
14
 20
-22.9
 11
14.2847
 21
-22.9375
  0
LINE
  8
0
 10
14.2847
 20
-22.9375
 11
14.55
 21
-23.0474
  0
LINE
  8
0
 10
14.55
 20
-23.0474
 11
14.7778
 21
-23.2222
  0
LINE
  8
0
 10
14.7778
 20
-23.2222
 11
14.9526
 21
-23.45
  0
LINE
  8
0
 10
14.9526
 20
-23.45
 11
15.0625
 21
-23.7153
  0
LINE
  8
0
 10
15.0625
 20
-23.7153
 11
15.1
 21
-24
  0
LINE
  8
0
 10
15.1
 20
-24
 11
15.0625
 21
-24.2847
  0
LINE
  8
0
 10
15.0625
 20
-24.2847
 11
14.9526
 21
-24.55
  0
LINE
  8
0
 10
14.9526
 20
-24.55
 11
14.7778
 21
-24.7778
  0
LINE
  8
0
 10
14.7778
 20
-24.7778
 11
14.55
 21
-24.9526
  0
LINE
  8
0
 10
14.55
 20
-24.9526
 11
14.2847
 21
-25.0625
  0
LINE
  8
0
 10
14.2847
 20
-25.0625
 11
14
 21
-25.1
  0
LINE
  8
0
 10
14
 20
-25.1
 11
13.7153
 21
-25.0625
  0
ENDSEC
  0
SECTION
  2
OBJECTS
  0
DICTIONARY
  0
ENDSEC
  0
EOF
