  0
SECTION
  2
BLOCKS
  0
ENDSEC
  0
SECTION
  2
ENTITIES
  0
LINE
  8
0
 10
42.9386
 20
-44.9261
 11
43.8541
 21
-44.7063
  0
LINE
  8
0
 10
43.8541
 20
-44.7063
 11
44.7239
 21
-44.346
  0
LINE
  8
0
 10
44.7239
 20
-44.346
 11
45.5267
 21
-43.8541
  0
LINE
  8
0
 10
45.5267
 20
-43.8541
 11
46.2426
 21
-43.2426
  0
LINE
  8
0
 10
46.2426
 20
-43.2426
 11
46.8541
 21
-42.5267
  0
LINE
  8
0
 10
46.8541
 20
-42.5267
 11
47.346
 21
-41.7239
  0
LINE
  8
0
 10
47.346
 20
-41.7239
 11
47.7063
 21
-40.8541
  0
LINE
  8
0
 10
47.7063
 20
-40.8541
 11
47.9261
 21
-39.9386
  0
LINE
  8
0
 10
47.9261
 20
-39.9386
 11
48
 21
-39
  0
LINE
  8
0
 10
48
 20
-39
 11
48
 21
39
  0
LINE
  8
0
 10
48
 20
39
 11
47.9261
 21
39.9386
  0
LINE
  8
0
 10
47.9261
 20
39.9386
 11
47.7063
 21
40.8541
  0
LINE
  8
0
 10
47.7063
 20
40.8541
 11
47.346
 21
41.7239
  0
LINE
  8
0
 10
47.346
 20
41.7239
 11
46.8541
 21
42.5267
  0
LINE
  8
0
 10
46.8541
 20
42.5267
 11
46.2426
 21
43.2426
  0
LINE
  8
0
 10
46.2426
 20
43.2426
 11
45.5267
 21
43.8541
  0
LINE
  8
0
 10
45.5267
 20
43.8541
 11
44.7239
 21
44.346
  0
LINE
  8
0
 10
44.7239
 20
44.346
 11
43.8541
 21
44.7063
  0
LINE
  8
0
 10
43.8541
 20
44.7063
 11
42.9386
 21
44.9261
  0
LINE
  8
0
 10
42.9386
 20
44.9261
 11
42
 21
45
  0
LINE
  8
0
 10
42
 20
45
 11
-79
 21
45
  0
LINE
  8
0
 10
-79
 20
45
 11
-79.9386
 21
44.9261
  0
LINE
  8
0
 10
-79.9386
 20
44.9261
 11
-80.8541
 21
44.7063
  0
LINE
  8
0
 10
-80.8541
 20
44.7063
 11
-81.7239
 21
44.346
  0
LINE
  8
0
 10
-81.7239
 20
44.346
 11
-82.5267
 21
43.8541
  0
LINE
  8
0
 10
-82.5267
 20
43.8541
 11
-83.2426
 21
43.2426
  0
LINE
  8
0
 10
-83.2426
 20
43.2426
 11
-83.8541
 21
42.5267
  0
LINE
  8
0
 10
-83.8541
 20
42.5267
 11
-84.346
 21
41.7239
  0
LINE
  8
0
 10
-84.346
 20
41.7239
 11
-84.7063
 21
40.8541
  0
LINE
  8
0
 10
-84.7063
 20
40.8541
 11
-84.9261
 21
39.9386
  0
LINE
  8
0
 10
-84.9261
 20
39.9386
 11
-85
 21
39
  0
LINE
  8
0
 10
-85
 20
39
 11
-85
 21
-39
  0
LINE
  8
0
 10
-85
 20
-39
 11
-84.9261
 21
-39.9386
  0
LINE
  8
0
 10
-84.9261
 20
-39.9386
 11
-84.7063
 21
-40.8541
  0
LINE
  8
0
 10
-84.7063
 20
-40.8541
 11
-84.346
 21
-41.7239
  0
LINE
  8
0
 10
-84.346
 20
-41.7239
 11
-83.8541
 21
-42.5267
  0
LINE
  8
0
 10
-83.8541
 20
-42.5267
 11
-83.2426
 21
-43.2426
  0
LINE
  8
0
 10
-83.2426
 20
-43.2426
 11
-82.5267
 21
-43.8541
  0
LINE
  8
0
 10
-82.5267
 20
-43.8541
 11
-81.7239
 21
-44.346
  0
LINE
  8
0
 10
-81.7239
 20
-44.346
 11
-80.8541
 21
-44.7063
  0
LINE
  8
0
 10
-80.8541
 20
-44.7063
 11
-79.9386
 21
-44.9261
  0
LINE
  8
0
 10
-79.9386
 20
-44.9261
 11
-79
 21
-45
  0
LINE
  8
0
 10
-79
 20
-45
 11
42
 21
-45
  0
LINE
  8
0
 10
42
 20
-45
 11
42.9386
 21
-44.9261
  0
LINE
  8
0
 10
-55.5
 20
21
 11
-55.5
 21
41
  0
LINE
  8
0
 10
-55.5
 20
41
 11
-52.5
 21
41
  0
LINE
  8
0
 10
-52.5
 20
41
 11
-52.5
 21
21
  0
LINE
  8
0
 10
-52.5
 20
21
 11
-55.5
 21
21
  0
LINE
  8
0
 10
22.5859
 20
36.4545
 11
22.2
 21
36.6143
  0
LINE
  8
0
 10
22.2
 20
36.6143
 11
21.8686
 21
36.8686
  0
LINE
  8
0
 10
21.8686
 20
36.8686
 11
21.6143
 21
37.2
  0
LINE
  8
0
 10
21.6143
 20
37.2
 11
21.4545
 21
37.5859
  0
LINE
  8
0
 10
21.4545
 20
37.5859
 11
21.4
 21
38
  0
LINE
  8
0
 10
21.4
 20
38
 11
21.4545
 21
38.4141
  0
LINE
  8
0
 10
21.4545
 20
38.4141
 11
21.6143
 21
38.8
  0
LINE
  8
0
 10
21.6143
 20
38.8
 11
21.8686
 21
39.1314
  0
LINE
  8
0
 10
21.8686
 20
39.1314
 11
22.2
 21
39.3856
  0
LINE
  8
0
 10
22.2
 20
39.3856
 11
22.5859
 21
39.5455
  0
LINE
  8
0
 10
22.5859
 20
39.5455
 11
23
 21
39.6
  0
LINE
  8
0
 10
23
 20
39.6
 11
23.4141
 21
39.5455
  0
LINE
  8
0
 10
23.4141
 20
39.5455
 11
23.8
 21
39.3856
  0
LINE
  8
0
 10
23.8
 20
39.3856
 11
24.1314
 21
39.1314
  0
LINE
  8
0
 10
24.1314
 20
39.1314
 11
24.3856
 21
38.8
  0
LINE
  8
0
 10
24.3856
 20
38.8
 11
24.5455
 21
38.4141
  0
LINE
  8
0
 10
24.5455
 20
38.4141
 11
24.6
 21
38
  0
LINE
  8
0
 10
24.6
 20
38
 11
24.5455
 21
37.5859
  0
LINE
  8
0
 10
24.5455
 20
37.5859
 11
24.3856
 21
37.2
  0
LINE
  8
0
 10
24.3856
 20
37.2
 11
24.1314
 21
36.8686
  0
LINE
  8
0
 10
24.1314
 20
36.8686
 11
23.8
 21
36.6143
  0
LINE
  8
0
 10
23.8
 20
36.6143
 11
23.4141
 21
36.4545
  0
LINE
  8
0
 10
23.4141
 20
36.4545
 11
23
 21
36.4
  0
LINE
  8
0
 10
23
 20
36.4
 11
22.5859
 21
36.4545
  0
LINE
  8
0
 10
-80.4141
 20
36.4545
 11
-80.8
 21
36.6143
  0
LINE
  8
0
 10
-80.8
 20
36.6143
 11
-81.1314
 21
36.8686
  0
LINE
  8
0
 10
-81.1314
 20
36.8686
 11
-81.3856
 21
37.2
  0
LINE
  8
0
 10
-81.3856
 20
37.2
 11
-81.5455
 21
37.5859
  0
LINE
  8
0
 10
-81.5455
 20
37.5859
 11
-81.6
 21
38
  0
LINE
  8
0
 10
-81.6
 20
38
 11
-81.5455
 21
38.4141
  0
LINE
  8
0
 10
-81.5455
 20
38.4141
 11
-81.3856
 21
38.8
  0
LINE
  8
0
 10
-81.3856
 20
38.8
 11
-81.1314
 21
39.1314
  0
LINE
  8
0
 10
-81.1314
 20
39.1314
 11
-80.8
 21
39.3856
  0
LINE
  8
0
 10
-80.8
 20
39.3856
 11
-80.4141
 21
39.5455
  0
LINE
  8
0
 10
-80.4141
 20
39.5455
 11
-80
 21
39.6
  0
LINE
  8
0
 10
-80
 20
39.6
 11
-79.5859
 21
39.5455
  0
LINE
  8
0
 10
-79.5859
 20
39.5455
 11
-79.2
 21
39.3856
  0
LINE
  8
0
 10
-79.2
 20
39.3856
 11
-78.8686
 21
39.1314
  0
LINE
  8
0
 10
-78.8686
 20
39.1314
 11
-78.6143
 21
38.8
  0
LINE
  8
0
 10
-78.6143
 20
38.8
 11
-78.4545
 21
38.4141
  0
LINE
  8
0
 10
-78.4545
 20
38.4141
 11
-78.4
 21
38
  0
LINE
  8
0
 10
-78.4
 20
38
 11
-78.4545
 21
37.5859
  0
LINE
  8
0
 10
-78.4545
 20
37.5859
 11
-78.6143
 21
37.2
  0
LINE
  8
0
 10
-78.6143
 20
37.2
 11
-78.8686
 21
36.8686
  0
LINE
  8
0
 10
-78.8686
 20
36.8686
 11
-79.2
 21
36.6143
  0
LINE
  8
0
 10
-79.2
 20
36.6143
 11
-79.5859
 21
36.4545
  0
LINE
  8
0
 10
-79.5859
 20
36.4545
 11
-80
 21
36.4
  0
LINE
  8
0
 10
-80
 20
36.4
 11
-80.4141
 21
36.4545
  0
LINE
  8
0
 10
6.29999
 20
37.1
 11
6.29999
 21
38.9
  0
LINE
  8
0
 10
6.29999
 20
38.9
 11
9.7
 21
38.9
  0
LINE
  8
0
 10
9.7
 20
38.9
 11
9.7
 21
37.1
  0
LINE
  8
0
 10
9.7
 20
37.1
 11
6.29999
 21
37.1
  0
LINE
  8
0
 10
-9.7
 20
37.1
 11
-9.7
 21
38.9
  0
LINE
  8
0
 10
-9.7
 20
38.9
 11
-6.29999
 21
38.9
  0
LINE
  8
0
 10
-6.29999
 20
38.9
 11
-6.29999
 21
37.1
  0
LINE
  8
0
 10
-6.29999
 20
37.1
 11
-9.7
 21
37.1
  0
LINE
  8
0
 10
30.5332
 20
36.1969
 11
33.3045
 21
37.7968
  0
LINE
  8
0
 10
33.3045
 20
37.7968
 11
43.4045
 21
20.3031
  0
LINE
  8
0
 10
43.4045
 20
20.3031
 11
40.6333
 21
18.7031
  0
LINE
  8
0
 10
40.6333
 20
18.7031
 11
30.5332
 21
36.1969
  0
LINE
  8
0
 10
-9.7
 20
17.1
 11
-9.7
 21
18.9
  0
LINE
  8
0
 10
-9.7
 20
18.9
 11
-6.29999
 21
18.9
  0
LINE
  8
0
 10
-6.29999
 20
18.9
 11
-6.29999
 21
17.1
  0
LINE
  8
0
 10
-6.29999
 20
17.1
 11
-9.7
 21
17.1
  0
LINE
  8
0
 10
6.29999
 20
17.1
 11
6.29999
 21
18.9
  0
LINE
  8
0
 10
6.29999
 20
18.9
 11
9.7
 21
18.9
  0
LINE
  8
0
 10
9.7
 20
18.9
 11
9.7
 21
17.1
  0
LINE
  8
0
 10
9.7
 20
17.1
 11
6.29999
 21
17.1
  0
LINE
  8
0
 10
41.9
 20
-10.1
 11
41.9
 21
10.1
  0
LINE
  8
0
 10
41.9
 20
10.1
 11
45.1
 21
10.1
  0
LINE
  8
0
 10
45.1
 20
10.1
 11
45.1
 21
-10.1
  0
LINE
  8
0
 10
45.1
 20
-10.1
 11
41.9
 21
-10.1
  0
LINE
  8
0
 10
-65.4141
 20
6.45451
 11
-65.8
 21
6.61435
  0
LINE
  8
0
 10
-65.8
 20
6.61435
 11
-66.1314
 21
6.86862
  0
LINE
  8
0
 10
-66.1314
 20
6.86862
 11
-66.3856
 21
7.2
  0
LINE
  8
0
 10
-66.3856
 20
7.2
 11
-66.5455
 21
7.58588
  0
LINE
  8
0
 10
-66.5455
 20
7.58588
 11
-66.6
 21
8
  0
LINE
  8
0
 10
-66.6
 20
8
 11
-66.5455
 21
8.41411
  0
LINE
  8
0
 10
-66.5455
 20
8.41411
 11
-66.3856
 21
8.79999
  0
LINE
  8
0
 10
-66.3856
 20
8.79999
 11
-66.1314
 21
9.13136
  0
LINE
  8
0
 10
-66.1314
 20
9.13136
 11
-65.8
 21
9.38564
  0
LINE
  8
0
 10
-65.8
 20
9.38564
 11
-65.4141
 21
9.54547
  0
LINE
  8
0
 10
-65.4141
 20
9.54547
 11
-65
 21
9.59999
  0
LINE
  8
0
 10
-65
 20
9.59999
 11
-64.5859
 21
9.54547
  0
LINE
  8
0
 10
-64.5859
 20
9.54547
 11
-64.2
 21
9.38564
  0
LINE
  8
0
 10
-64.2
 20
9.38564
 11
-63.8686
 21
9.13136
  0
LINE
  8
0
 10
-63.8686
 20
9.13136
 11
-63.6143
 21
8.79999
  0
LINE
  8
0
 10
-63.6143
 20
8.79999
 11
-63.4545
 21
8.41411
  0
LINE
  8
0
 10
-63.4545
 20
8.41411
 11
-63.4
 21
8
  0
LINE
  8
0
 10
-63.4
 20
8
 11
-63.4545
 21
7.58588
  0
LINE
  8
0
 10
-63.4545
 20
7.58588
 11
-63.6143
 21
7.2
  0
LINE
  8
0
 10
-63.6143
 20
7.2
 11
-63.8686
 21
6.86862
  0
LINE
  8
0
 10
-63.8686
 20
6.86862
 11
-64.2
 21
6.61435
  0
LINE
  8
0
 10
-64.2
 20
6.61435
 11
-64.5859
 21
6.45451
  0
LINE
  8
0
 10
-64.5859
 20
6.45451
 11
-65
 21
6.39999
  0
LINE
  8
0
 10
-65
 20
6.39999
 11
-65.4141
 21
6.45451
  0
LINE
  8
0
 10
-65.4141
 20
-9.54547
 11
-65.8
 21
-9.38564
  0
LINE
  8
0
 10
-65.8
 20
-9.38564
 11
-66.1314
 21
-9.13136
  0
LINE
  8
0
 10
-66.1314
 20
-9.13136
 11
-66.3856
 21
-8.79999
  0
LINE
  8
0
 10
-66.3856
 20
-8.79999
 11
-66.5455
 21
-8.41411
  0
LINE
  8
0
 10
-66.5455
 20
-8.41411
 11
-66.6
 21
-8
  0
LINE
  8
0
 10
-66.6
 20
-8
 11
-66.5455
 21
-7.58588
  0
LINE
  8
0
 10
-66.5455
 20
-7.58588
 11
-66.3856
 21
-7.2
  0
LINE
  8
0
 10
-66.3856
 20
-7.2
 11
-66.1314
 21
-6.86862
  0
LINE
  8
0
 10
-66.1314
 20
-6.86862
 11
-65.8
 21
-6.61435
  0
LINE
  8
0
 10
-65.8
 20
-6.61435
 11
-65.4141
 21
-6.45451
  0
LINE
  8
0
 10
-65.4141
 20
-6.45451
 11
-65
 21
-6.39999
  0
LINE
  8
0
 10
-65
 20
-6.39999
 11
-64.5859
 21
-6.45451
  0
LINE
  8
0
 10
-64.5859
 20
-6.45451
 11
-64.2
 21
-6.61435
  0
LINE
  8
0
 10
-64.2
 20
-6.61435
 11
-63.8686
 21
-6.86862
  0
LINE
  8
0
 10
-63.8686
 20
-6.86862
 11
-63.6143
 21
-7.2
  0
LINE
  8
0
 10
-63.6143
 20
-7.2
 11
-63.4545
 21
-7.58588
  0
LINE
  8
0
 10
-63.4545
 20
-7.58588
 11
-63.4
 21
-8
  0
LINE
  8
0
 10
-63.4
 20
-8
 11
-63.4545
 21
-8.41411
  0
LINE
  8
0
 10
-63.4545
 20
-8.41411
 11
-63.6143
 21
-8.79999
  0
LINE
  8
0
 10
-63.6143
 20
-8.79999
 11
-63.8686
 21
-9.13136
  0
LINE
  8
0
 10
-63.8686
 20
-9.13136
 11
-64.2
 21
-9.38564
  0
LINE
  8
0
 10
-64.2
 20
-9.38564
 11
-64.5859
 21
-9.54547
  0
LINE
  8
0
 10
-64.5859
 20
-9.54547
 11
-65
 21
-9.59999
  0
LINE
  8
0
 10
-65
 20
-9.59999
 11
-65.4141
 21
-9.54547
  0
LINE
  8
0
 10
-9.7
 20
-18.9
 11
-9.7
 21
-17.1
  0
LINE
  8
0
 10
-9.7
 20
-17.1
 11
-6.29999
 21
-17.1
  0
LINE
  8
0
 10
-6.29999
 20
-17.1
 11
-6.29999
 21
-18.9
  0
LINE
  8
0
 10
-6.29999
 20
-18.9
 11
-9.7
 21
-18.9
  0
LINE
  8
0
 10
6.29999
 20
-18.9
 11
6.29999
 21
-17.1
  0
LINE
  8
0
 10
6.29999
 20
-17.1
 11
9.7
 21
-17.1
  0
LINE
  8
0
 10
9.7
 20
-17.1
 11
9.7
 21
-18.9
  0
LINE
  8
0
 10
9.7
 20
-18.9
 11
6.29999
 21
-18.9
  0
LINE
  8
0
 10
30.5332
 20
-36.1969
 11
40.6333
 21
-18.7031
  0
LINE
  8
0
 10
40.6333
 20
-18.7031
 11
43.4045
 21
-20.3031
  0
LINE
  8
0
 10
43.4045
 20
-20.3031
 11
33.3045
 21
-37.7968
  0
LINE
  8
0
 10
33.3045
 20
-37.7968
 11
30.5332
 21
-36.1969
  0
LINE
  8
0
 10
-55.5
 20
-41
 11
-55.5
 21
-21
  0
LINE
  8
0
 10
-55.5
 20
-21
 11
-52.5
 21
-21
  0
LINE
  8
0
 10
-52.5
 20
-21
 11
-52.5
 21
-41
  0
LINE
  8
0
 10
-52.5
 20
-41
 11
-55.5
 21
-41
  0
LINE
  8
0
 10
-80.4141
 20
-39.5455
 11
-80.8
 21
-39.3856
  0
LINE
  8
0
 10
-80.8
 20
-39.3856
 11
-81.1314
 21
-39.1314
  0
LINE
  8
0
 10
-81.1314
 20
-39.1314
 11
-81.3856
 21
-38.8
  0
LINE
  8
0
 10
-81.3856
 20
-38.8
 11
-81.5455
 21
-38.4141
  0
LINE
  8
0
 10
-81.5455
 20
-38.4141
 11
-81.6
 21
-38
  0
LINE
  8
0
 10
-81.6
 20
-38
 11
-81.5455
 21
-37.5859
  0
LINE
  8
0
 10
-81.5455
 20
-37.5859
 11
-81.3856
 21
-37.2
  0
LINE
  8
0
 10
-81.3856
 20
-37.2
 11
-81.1314
 21
-36.8686
  0
LINE
  8
0
 10
-81.1314
 20
-36.8686
 11
-80.8
 21
-36.6143
  0
LINE
  8
0
 10
-80.8
 20
-36.6143
 11
-80.4141
 21
-36.4545
  0
LINE
  8
0
 10
-80.4141
 20
-36.4545
 11
-80
 21
-36.4
  0
LINE
  8
0
 10
-80
 20
-36.4
 11
-79.5859
 21
-36.4545
  0
LINE
  8
0
 10
-79.5859
 20
-36.4545
 11
-79.2
 21
-36.6143
  0
LINE
  8
0
 10
-79.2
 20
-36.6143
 11
-78.8686
 21
-36.8686
  0
LINE
  8
0
 10
-78.8686
 20
-36.8686
 11
-78.6143
 21
-37.2
  0
LINE
  8
0
 10
-78.6143
 20
-37.2
 11
-78.4545
 21
-37.5859
  0
LINE
  8
0
 10
-78.4545
 20
-37.5859
 11
-78.4
 21
-38
  0
LINE
  8
0
 10
-78.4
 20
-38
 11
-78.4545
 21
-38.4141
  0
LINE
  8
0
 10
-78.4545
 20
-38.4141
 11
-78.6143
 21
-38.8
  0
LINE
  8
0
 10
-78.6143
 20
-38.8
 11
-78.8686
 21
-39.1314
  0
LINE
  8
0
 10
-78.8686
 20
-39.1314
 11
-79.2
 21
-39.3856
  0
LINE
  8
0
 10
-79.2
 20
-39.3856
 11
-79.5859
 21
-39.5455
  0
LINE
  8
0
 10
-79.5859
 20
-39.5455
 11
-80
 21
-39.6
  0
LINE
  8
0
 10
-80
 20
-39.6
 11
-80.4141
 21
-39.5455
  0
LINE
  8
0
 10
22.5859
 20
-39.5455
 11
22.2
 21
-39.3856
  0
LINE
  8
0
 10
22.2
 20
-39.3856
 11
21.8686
 21
-39.1314
  0
LINE
  8
0
 10
21.8686
 20
-39.1314
 11
21.6143
 21
-38.8
  0
LINE
  8
0
 10
21.6143
 20
-38.8
 11
21.4545
 21
-38.4141
  0
LINE
  8
0
 10
21.4545
 20
-38.4141
 11
21.4
 21
-38
  0
LINE
  8
0
 10
21.4
 20
-38
 11
21.4545
 21
-37.5859
  0
LINE
  8
0
 10
21.4545
 20
-37.5859
 11
21.6143
 21
-37.2
  0
LINE
  8
0
 10
21.6143
 20
-37.2
 11
21.8686
 21
-36.8686
  0
LINE
  8
0
 10
21.8686
 20
-36.8686
 11
22.2
 21
-36.6143
  0
LINE
  8
0
 10
22.2
 20
-36.6143
 11
22.5859
 21
-36.4545
  0
LINE
  8
0
 10
22.5859
 20
-36.4545
 11
23
 21
-36.4
  0
LINE
  8
0
 10
23
 20
-36.4
 11
23.4141
 21
-36.4545
  0
LINE
  8
0
 10
23.4141
 20
-36.4545
 11
23.8
 21
-36.6143
  0
LINE
  8
0
 10
23.8
 20
-36.6143
 11
24.1314
 21
-36.8686
  0
LINE
  8
0
 10
24.1314
 20
-36.8686
 11
24.3856
 21
-37.2
  0
LINE
  8
0
 10
24.3856
 20
-37.2
 11
24.5455
 21
-37.5859
  0
LINE
  8
0
 10
24.5455
 20
-37.5859
 11
24.6
 21
-38
  0
LINE
  8
0
 10
24.6
 20
-38
 11
24.5455
 21
-38.4141
  0
LINE
  8
0
 10
24.5455
 20
-38.4141
 11
24.3856
 21
-38.8
  0
LINE
  8
0
 10
24.3856
 20
-38.8
 11
24.1314
 21
-39.1314
  0
LINE
  8
0
 10
24.1314
 20
-39.1314
 11
23.8
 21
-39.3856
  0
LINE
  8
0
 10
23.8
 20
-39.3856
 11
23.4141
 21
-39.5455
  0
LINE
  8
0
 10
23.4141
 20
-39.5455
 11
23
 21
-39.6
  0
LINE
  8
0
 10
23
 20
-39.6
 11
22.5859
 21
-39.5455
  0
LINE
  8
0
 10
-9.7
 20
-38.9
 11
-9.7
 21
-37.1
  0
LINE
  8
0
 10
-9.7
 20
-37.1
 11
-6.29999
 21
-37.1
  0
LINE
  8
0
 10
-6.29999
 20
-37.1
 11
-6.29999
 21
-38.9
  0
LINE
  8
0
 10
-6.29999
 20
-38.9
 11
-9.7
 21
-38.9
  0
LINE
  8
0
 10
6.29999
 20
-38.9
 11
6.29999
 21
-37.1
  0
LINE
  8
0
 10
6.29999
 20
-37.1
 11
9.7
 21
-37.1
  0
LINE
  8
0
 10
9.7
 20
-37.1
 11
9.7
 21
-38.9
  0
LINE
  8
0
 10
9.7
 20
-38.9
 11
6.29999
 21
-38.9
  0
ENDSEC
  0
SECTION
  2
OBJECTS
  0
DICTIONARY
  0
ENDSEC
  0
EOF
