  0
SECTION
  2
BLOCKS
  0
ENDSEC
  0
SECTION
  2
ENTITIES
  0
LINE
  8
0
 10
22.9386
 20
-44.9261
 11
23.8541
 21
-44.7063
  0
LINE
  8
0
 10
23.8541
 20
-44.7063
 11
24.7239
 21
-44.346
  0
LINE
  8
0
 10
24.7239
 20
-44.346
 11
25.5267
 21
-43.8541
  0
LINE
  8
0
 10
25.5267
 20
-43.8541
 11
26.2426
 21
-43.2426
  0
LINE
  8
0
 10
26.2426
 20
-43.2426
 11
26.8541
 21
-42.5267
  0
LINE
  8
0
 10
26.8541
 20
-42.5267
 11
27.346
 21
-41.7239
  0
LINE
  8
0
 10
27.346
 20
-41.7239
 11
27.7063
 21
-40.8541
  0
LINE
  8
0
 10
27.7063
 20
-40.8541
 11
27.9261
 21
-39.9386
  0
LINE
  8
0
 10
27.9261
 20
-39.9386
 11
28
 21
-39
  0
LINE
  8
0
 10
28
 20
-39
 11
28
 21
39
  0
LINE
  8
0
 10
28
 20
39
 11
27.9261
 21
39.9386
  0
LINE
  8
0
 10
27.9261
 20
39.9386
 11
27.7063
 21
40.8541
  0
LINE
  8
0
 10
27.7063
 20
40.8541
 11
27.346
 21
41.7239
  0
LINE
  8
0
 10
27.346
 20
41.7239
 11
26.8541
 21
42.5267
  0
LINE
  8
0
 10
26.8541
 20
42.5267
 11
26.2426
 21
43.2426
  0
LINE
  8
0
 10
26.2426
 20
43.2426
 11
25.5267
 21
43.8541
  0
LINE
  8
0
 10
25.5267
 20
43.8541
 11
24.7239
 21
44.346
  0
LINE
  8
0
 10
24.7239
 20
44.346
 11
23.8541
 21
44.7063
  0
LINE
  8
0
 10
23.8541
 20
44.7063
 11
22.9386
 21
44.9261
  0
LINE
  8
0
 10
22.9386
 20
44.9261
 11
22
 21
45
  0
LINE
  8
0
 10
22
 20
45
 11
-79
 21
45
  0
LINE
  8
0
 10
-79
 20
45
 11
-79.9386
 21
44.9261
  0
LINE
  8
0
 10
-79.9386
 20
44.9261
 11
-80.8541
 21
44.7063
  0
LINE
  8
0
 10
-80.8541
 20
44.7063
 11
-81.7239
 21
44.346
  0
LINE
  8
0
 10
-81.7239
 20
44.346
 11
-82.5267
 21
43.8541
  0
LINE
  8
0
 10
-82.5267
 20
43.8541
 11
-83.2426
 21
43.2426
  0
LINE
  8
0
 10
-83.2426
 20
43.2426
 11
-83.8541
 21
42.5267
  0
LINE
  8
0
 10
-83.8541
 20
42.5267
 11
-84.346
 21
41.7239
  0
LINE
  8
0
 10
-84.346
 20
41.7239
 11
-84.7063
 21
40.8541
  0
LINE
  8
0
 10
-84.7063
 20
40.8541
 11
-84.9261
 21
39.9386
  0
LINE
  8
0
 10
-84.9261
 20
39.9386
 11
-85
 21
39
  0
LINE
  8
0
 10
-85
 20
39
 11
-85
 21
-39
  0
LINE
  8
0
 10
-85
 20
-39
 11
-84.9261
 21
-39.9386
  0
LINE
  8
0
 10
-84.9261
 20
-39.9386
 11
-84.7063
 21
-40.8541
  0
LINE
  8
0
 10
-84.7063
 20
-40.8541
 11
-84.346
 21
-41.7239
  0
LINE
  8
0
 10
-84.346
 20
-41.7239
 11
-83.8541
 21
-42.5267
  0
LINE
  8
0
 10
-83.8541
 20
-42.5267
 11
-83.2426
 21
-43.2426
  0
LINE
  8
0
 10
-83.2426
 20
-43.2426
 11
-82.5267
 21
-43.8541
  0
LINE
  8
0
 10
-82.5267
 20
-43.8541
 11
-81.7239
 21
-44.346
  0
LINE
  8
0
 10
-81.7239
 20
-44.346
 11
-80.8541
 21
-44.7063
  0
LINE
  8
0
 10
-80.8541
 20
-44.7063
 11
-79.9386
 21
-44.9261
  0
LINE
  8
0
 10
-79.9386
 20
-44.9261
 11
-79
 21
-45
  0
LINE
  8
0
 10
-79
 20
-45
 11
22
 21
-45
  0
LINE
  8
0
 10
22
 20
-45
 11
22.9386
 21
-44.9261
  0
LINE
  8
0
 10
22.5859
 20
36.4545
 11
22.2
 21
36.6143
  0
LINE
  8
0
 10
22.2
 20
36.6143
 11
21.8686
 21
36.8686
  0
LINE
  8
0
 10
21.8686
 20
36.8686
 11
21.6143
 21
37.2
  0
LINE
  8
0
 10
21.6143
 20
37.2
 11
21.4545
 21
37.5859
  0
LINE
  8
0
 10
21.4545
 20
37.5859
 11
21.4
 21
38
  0
LINE
  8
0
 10
21.4
 20
38
 11
21.4545
 21
38.4141
  0
LINE
  8
0
 10
21.4545
 20
38.4141
 11
21.6143
 21
38.8
  0
LINE
  8
0
 10
21.6143
 20
38.8
 11
21.8686
 21
39.1314
  0
LINE
  8
0
 10
21.8686
 20
39.1314
 11
22.2
 21
39.3856
  0
LINE
  8
0
 10
22.2
 20
39.3856
 11
22.5859
 21
39.5455
  0
LINE
  8
0
 10
22.5859
 20
39.5455
 11
23
 21
39.6
  0
LINE
  8
0
 10
23
 20
39.6
 11
23.4141
 21
39.5455
  0
LINE
  8
0
 10
23.4141
 20
39.5455
 11
23.8
 21
39.3856
  0
LINE
  8
0
 10
23.8
 20
39.3856
 11
24.1314
 21
39.1314
  0
LINE
  8
0
 10
24.1314
 20
39.1314
 11
24.3856
 21
38.8
  0
LINE
  8
0
 10
24.3856
 20
38.8
 11
24.5455
 21
38.4141
  0
LINE
  8
0
 10
24.5455
 20
38.4141
 11
24.6
 21
38
  0
LINE
  8
0
 10
24.6
 20
38
 11
24.5455
 21
37.5859
  0
LINE
  8
0
 10
24.5455
 20
37.5859
 11
24.3856
 21
37.2
  0
LINE
  8
0
 10
24.3856
 20
37.2
 11
24.1314
 21
36.8686
  0
LINE
  8
0
 10
24.1314
 20
36.8686
 11
23.8
 21
36.6143
  0
LINE
  8
0
 10
23.8
 20
36.6143
 11
23.4141
 21
36.4545
  0
LINE
  8
0
 10
23.4141
 20
36.4545
 11
23
 21
36.4
  0
LINE
  8
0
 10
23
 20
36.4
 11
22.5859
 21
36.4545
  0
LINE
  8
0
 10
-80.4141
 20
36.4545
 11
-80.8
 21
36.6143
  0
LINE
  8
0
 10
-80.8
 20
36.6143
 11
-81.1314
 21
36.8686
  0
LINE
  8
0
 10
-81.1314
 20
36.8686
 11
-81.3856
 21
37.2
  0
LINE
  8
0
 10
-81.3856
 20
37.2
 11
-81.5455
 21
37.5859
  0
LINE
  8
0
 10
-81.5455
 20
37.5859
 11
-81.6
 21
38
  0
LINE
  8
0
 10
-81.6
 20
38
 11
-81.5455
 21
38.4141
  0
LINE
  8
0
 10
-81.5455
 20
38.4141
 11
-81.3856
 21
38.8
  0
LINE
  8
0
 10
-81.3856
 20
38.8
 11
-81.1314
 21
39.1314
  0
LINE
  8
0
 10
-81.1314
 20
39.1314
 11
-80.8
 21
39.3856
  0
LINE
  8
0
 10
-80.8
 20
39.3856
 11
-80.4141
 21
39.5455
  0
LINE
  8
0
 10
-80.4141
 20
39.5455
 11
-80
 21
39.6
  0
LINE
  8
0
 10
-80
 20
39.6
 11
-79.5859
 21
39.5455
  0
LINE
  8
0
 10
-79.5859
 20
39.5455
 11
-79.2
 21
39.3856
  0
LINE
  8
0
 10
-79.2
 20
39.3856
 11
-78.8686
 21
39.1314
  0
LINE
  8
0
 10
-78.8686
 20
39.1314
 11
-78.6143
 21
38.8
  0
LINE
  8
0
 10
-78.6143
 20
38.8
 11
-78.4545
 21
38.4141
  0
LINE
  8
0
 10
-78.4545
 20
38.4141
 11
-78.4
 21
38
  0
LINE
  8
0
 10
-78.4
 20
38
 11
-78.4545
 21
37.5859
  0
LINE
  8
0
 10
-78.4545
 20
37.5859
 11
-78.6143
 21
37.2
  0
LINE
  8
0
 10
-78.6143
 20
37.2
 11
-78.8686
 21
36.8686
  0
LINE
  8
0
 10
-78.8686
 20
36.8686
 11
-79.2
 21
36.6143
  0
LINE
  8
0
 10
-79.2
 20
36.6143
 11
-79.5859
 21
36.4545
  0
LINE
  8
0
 10
-79.5859
 20
36.4545
 11
-80
 21
36.4
  0
LINE
  8
0
 10
-80
 20
36.4
 11
-80.4141
 21
36.4545
  0
LINE
  8
0
 10
-59.3947
 20
23.027
 11
-59.7625
 21
23.1793
  0
LINE
  8
0
 10
-59.7625
 20
23.1793
 11
-60.0783
 21
23.4217
  0
LINE
  8
0
 10
-60.0783
 20
23.4217
 11
-60.3207
 21
23.7375
  0
LINE
  8
0
 10
-60.3207
 20
23.7375
 11
-60.473
 21
24.1053
  0
LINE
  8
0
 10
-60.473
 20
24.1053
 11
-60.525
 21
24.5
  0
LINE
  8
0
 10
-60.525
 20
24.5
 11
-60.473
 21
24.8947
  0
LINE
  8
0
 10
-60.473
 20
24.8947
 11
-60.3207
 21
25.2625
  0
LINE
  8
0
 10
-60.3207
 20
25.2625
 11
-60.0783
 21
25.5783
  0
LINE
  8
0
 10
-60.0783
 20
25.5783
 11
-59.7625
 21
25.8207
  0
LINE
  8
0
 10
-59.7625
 20
25.8207
 11
-59.3947
 21
25.973
  0
LINE
  8
0
 10
-59.3947
 20
25.973
 11
-59
 21
26.025
  0
LINE
  8
0
 10
-59
 20
26.025
 11
-58.6053
 21
25.973
  0
LINE
  8
0
 10
-58.6053
 20
25.973
 11
-58.2375
 21
25.8207
  0
LINE
  8
0
 10
-58.2375
 20
25.8207
 11
-57.9217
 21
25.5783
  0
LINE
  8
0
 10
-57.9217
 20
25.5783
 11
-57.6793
 21
25.2625
  0
LINE
  8
0
 10
-57.6793
 20
25.2625
 11
-57.527
 21
24.8947
  0
LINE
  8
0
 10
-57.527
 20
24.8947
 11
-57.475
 21
24.5
  0
LINE
  8
0
 10
-57.475
 20
24.5
 11
-57.527
 21
24.1053
  0
LINE
  8
0
 10
-57.527
 20
24.1053
 11
-57.6793
 21
23.7375
  0
LINE
  8
0
 10
-57.6793
 20
23.7375
 11
-57.9217
 21
23.4217
  0
LINE
  8
0
 10
-57.9217
 20
23.4217
 11
-58.2375
 21
23.1793
  0
LINE
  8
0
 10
-58.2375
 20
23.1793
 11
-58.6053
 21
23.027
  0
LINE
  8
0
 10
-58.6053
 20
23.027
 11
-59
 21
22.975
  0
LINE
  8
0
 10
-59
 20
22.975
 11
-59.3947
 21
23.027
  0
LINE
  8
0
 10
-1.39468
 20
23.027
 11
-1.7625
 21
23.1793
  0
LINE
  8
0
 10
-1.7625
 20
23.1793
 11
-2.07832
 21
23.4217
  0
LINE
  8
0
 10
-2.07832
 20
23.4217
 11
-2.32068
 21
23.7375
  0
LINE
  8
0
 10
-2.32068
 20
23.7375
 11
-2.47302
 21
24.1053
  0
LINE
  8
0
 10
-2.47302
 20
24.1053
 11
-2.52499
 21
24.5
  0
LINE
  8
0
 10
-2.52499
 20
24.5
 11
-2.47302
 21
24.8947
  0
LINE
  8
0
 10
-2.47302
 20
24.8947
 11
-2.32068
 21
25.2625
  0
LINE
  8
0
 10
-2.32068
 20
25.2625
 11
-2.07832
 21
25.5783
  0
LINE
  8
0
 10
-2.07832
 20
25.5783
 11
-1.7625
 21
25.8207
  0
LINE
  8
0
 10
-1.7625
 20
25.8207
 11
-1.39468
 21
25.973
  0
LINE
  8
0
 10
-1.39468
 20
25.973
 11
-1
 21
26.025
  0
LINE
  8
0
 10
-1
 20
26.025
 11
-0.605301
 21
25.973
  0
LINE
  8
0
 10
-0.605301
 20
25.973
 11
-0.237488
 21
25.8207
  0
LINE
  8
0
 10
-0.237488
 20
25.8207
 11
0.0783234
 21
25.5783
  0
LINE
  8
0
 10
0.0783234
 20
25.5783
 11
0.320679
 21
25.2625
  0
LINE
  8
0
 10
0.320679
 20
25.2625
 11
0.473022
 21
24.8947
  0
LINE
  8
0
 10
0.473022
 20
24.8947
 11
0.524994
 21
24.5
  0
LINE
  8
0
 10
0.524994
 20
24.5
 11
0.473022
 21
24.1053
  0
LINE
  8
0
 10
0.473022
 20
24.1053
 11
0.320679
 21
23.7375
  0
LINE
  8
0
 10
0.320679
 20
23.7375
 11
0.0783234
 21
23.4217
  0
LINE
  8
0
 10
0.0783234
 20
23.4217
 11
-0.237488
 21
23.1793
  0
LINE
  8
0
 10
-0.237488
 20
23.1793
 11
-0.605301
 21
23.027
  0
LINE
  8
0
 10
-0.605301
 20
23.027
 11
-1
 21
22.975
  0
LINE
  8
0
 10
-1
 20
22.975
 11
-1.39468
 21
23.027
  0
LINE
  8
0
 10
-79
 20
-7
 11
-79
 21
7
  0
LINE
  8
0
 10
-79
 20
7
 11
-73
 21
7
  0
LINE
  8
0
 10
-73
 20
7
 11
-73
 21
-7
  0
LINE
  8
0
 10
-73
 20
-7
 11
-79
 21
-7
  0
LINE
  8
0
 10
-59.3947
 20
-25.973
 11
-59.7625
 21
-25.8207
  0
LINE
  8
0
 10
-59.7625
 20
-25.8207
 11
-60.0783
 21
-25.5783
  0
LINE
  8
0
 10
-60.0783
 20
-25.5783
 11
-60.3207
 21
-25.2625
  0
LINE
  8
0
 10
-60.3207
 20
-25.2625
 11
-60.473
 21
-24.8947
  0
LINE
  8
0
 10
-60.473
 20
-24.8947
 11
-60.525
 21
-24.5
  0
LINE
  8
0
 10
-60.525
 20
-24.5
 11
-60.473
 21
-24.1053
  0
LINE
  8
0
 10
-60.473
 20
-24.1053
 11
-60.3207
 21
-23.7375
  0
LINE
  8
0
 10
-60.3207
 20
-23.7375
 11
-60.0783
 21
-23.4217
  0
LINE
  8
0
 10
-60.0783
 20
-23.4217
 11
-59.7625
 21
-23.1793
  0
LINE
  8
0
 10
-59.7625
 20
-23.1793
 11
-59.3947
 21
-23.027
  0
LINE
  8
0
 10
-59.3947
 20
-23.027
 11
-59
 21
-22.975
  0
LINE
  8
0
 10
-59
 20
-22.975
 11
-58.6053
 21
-23.027
  0
LINE
  8
0
 10
-58.6053
 20
-23.027
 11
-58.2375
 21
-23.1793
  0
LINE
  8
0
 10
-58.2375
 20
-23.1793
 11
-57.9217
 21
-23.4217
  0
LINE
  8
0
 10
-57.9217
 20
-23.4217
 11
-57.6793
 21
-23.7375
  0
LINE
  8
0
 10
-57.6793
 20
-23.7375
 11
-57.527
 21
-24.1053
  0
LINE
  8
0
 10
-57.527
 20
-24.1053
 11
-57.475
 21
-24.5
  0
LINE
  8
0
 10
-57.475
 20
-24.5
 11
-57.527
 21
-24.8947
  0
LINE
  8
0
 10
-57.527
 20
-24.8947
 11
-57.6793
 21
-25.2625
  0
LINE
  8
0
 10
-57.6793
 20
-25.2625
 11
-57.9217
 21
-25.5783
  0
LINE
  8
0
 10
-57.9217
 20
-25.5783
 11
-58.2375
 21
-25.8207
  0
LINE
  8
0
 10
-58.2375
 20
-25.8207
 11
-58.6053
 21
-25.973
  0
LINE
  8
0
 10
-58.6053
 20
-25.973
 11
-59
 21
-26.025
  0
LINE
  8
0
 10
-59
 20
-26.025
 11
-59.3947
 21
-25.973
  0
LINE
  8
0
 10
-1.39468
 20
-25.973
 11
-1.7625
 21
-25.8207
  0
LINE
  8
0
 10
-1.7625
 20
-25.8207
 11
-2.07832
 21
-25.5783
  0
LINE
  8
0
 10
-2.07832
 20
-25.5783
 11
-2.32068
 21
-25.2625
  0
LINE
  8
0
 10
-2.32068
 20
-25.2625
 11
-2.47302
 21
-24.8947
  0
LINE
  8
0
 10
-2.47302
 20
-24.8947
 11
-2.52499
 21
-24.5
  0
LINE
  8
0
 10
-2.52499
 20
-24.5
 11
-2.47302
 21
-24.1053
  0
LINE
  8
0
 10
-2.47302
 20
-24.1053
 11
-2.32068
 21
-23.7375
  0
LINE
  8
0
 10
-2.32068
 20
-23.7375
 11
-2.07832
 21
-23.4217
  0
LINE
  8
0
 10
-2.07832
 20
-23.4217
 11
-1.7625
 21
-23.1793
  0
LINE
  8
0
 10
-1.7625
 20
-23.1793
 11
-1.39468
 21
-23.027
  0
LINE
  8
0
 10
-1.39468
 20
-23.027
 11
-1
 21
-22.975
  0
LINE
  8
0
 10
-1
 20
-22.975
 11
-0.605301
 21
-23.027
  0
LINE
  8
0
 10
-0.605301
 20
-23.027
 11
-0.237488
 21
-23.1793
  0
LINE
  8
0
 10
-0.237488
 20
-23.1793
 11
0.0783234
 21
-23.4217
  0
LINE
  8
0
 10
0.0783234
 20
-23.4217
 11
0.320679
 21
-23.7375
  0
LINE
  8
0
 10
0.320679
 20
-23.7375
 11
0.473022
 21
-24.1053
  0
LINE
  8
0
 10
0.473022
 20
-24.1053
 11
0.524994
 21
-24.5
  0
LINE
  8
0
 10
0.524994
 20
-24.5
 11
0.473022
 21
-24.8947
  0
LINE
  8
0
 10
0.473022
 20
-24.8947
 11
0.320679
 21
-25.2625
  0
LINE
  8
0
 10
0.320679
 20
-25.2625
 11
0.0783234
 21
-25.5783
  0
LINE
  8
0
 10
0.0783234
 20
-25.5783
 11
-0.237488
 21
-25.8207
  0
LINE
  8
0
 10
-0.237488
 20
-25.8207
 11
-0.605301
 21
-25.973
  0
LINE
  8
0
 10
-0.605301
 20
-25.973
 11
-1
 21
-26.025
  0
LINE
  8
0
 10
-1
 20
-26.025
 11
-1.39468
 21
-25.973
  0
LINE
  8
0
 10
22.5859
 20
-39.5455
 11
22.2
 21
-39.3856
  0
LINE
  8
0
 10
22.2
 20
-39.3856
 11
21.8686
 21
-39.1314
  0
LINE
  8
0
 10
21.8686
 20
-39.1314
 11
21.6143
 21
-38.8
  0
LINE
  8
0
 10
21.6143
 20
-38.8
 11
21.4545
 21
-38.4141
  0
LINE
  8
0
 10
21.4545
 20
-38.4141
 11
21.4
 21
-38
  0
LINE
  8
0
 10
21.4
 20
-38
 11
21.4545
 21
-37.5859
  0
LINE
  8
0
 10
21.4545
 20
-37.5859
 11
21.6143
 21
-37.2
  0
LINE
  8
0
 10
21.6143
 20
-37.2
 11
21.8686
 21
-36.8686
  0
LINE
  8
0
 10
21.8686
 20
-36.8686
 11
22.2
 21
-36.6143
  0
LINE
  8
0
 10
22.2
 20
-36.6143
 11
22.5859
 21
-36.4545
  0
LINE
  8
0
 10
22.5859
 20
-36.4545
 11
23
 21
-36.4
  0
LINE
  8
0
 10
23
 20
-36.4
 11
23.4141
 21
-36.4545
  0
LINE
  8
0
 10
23.4141
 20
-36.4545
 11
23.8
 21
-36.6143
  0
LINE
  8
0
 10
23.8
 20
-36.6143
 11
24.1314
 21
-36.8686
  0
LINE
  8
0
 10
24.1314
 20
-36.8686
 11
24.3856
 21
-37.2
  0
LINE
  8
0
 10
24.3856
 20
-37.2
 11
24.5455
 21
-37.5859
  0
LINE
  8
0
 10
24.5455
 20
-37.5859
 11
24.6
 21
-38
  0
LINE
  8
0
 10
24.6
 20
-38
 11
24.5455
 21
-38.4141
  0
LINE
  8
0
 10
24.5455
 20
-38.4141
 11
24.3856
 21
-38.8
  0
LINE
  8
0
 10
24.3856
 20
-38.8
 11
24.1314
 21
-39.1314
  0
LINE
  8
0
 10
24.1314
 20
-39.1314
 11
23.8
 21
-39.3856
  0
LINE
  8
0
 10
23.8
 20
-39.3856
 11
23.4141
 21
-39.5455
  0
LINE
  8
0
 10
23.4141
 20
-39.5455
 11
23
 21
-39.6
  0
LINE
  8
0
 10
23
 20
-39.6
 11
22.5859
 21
-39.5455
  0
LINE
  8
0
 10
-80.4141
 20
-39.5455
 11
-80.8
 21
-39.3856
  0
LINE
  8
0
 10
-80.8
 20
-39.3856
 11
-81.1314
 21
-39.1314
  0
LINE
  8
0
 10
-81.1314
 20
-39.1314
 11
-81.3856
 21
-38.8
  0
LINE
  8
0
 10
-81.3856
 20
-38.8
 11
-81.5455
 21
-38.4141
  0
LINE
  8
0
 10
-81.5455
 20
-38.4141
 11
-81.6
 21
-38
  0
LINE
  8
0
 10
-81.6
 20
-38
 11
-81.5455
 21
-37.5859
  0
LINE
  8
0
 10
-81.5455
 20
-37.5859
 11
-81.3856
 21
-37.2
  0
LINE
  8
0
 10
-81.3856
 20
-37.2
 11
-81.1314
 21
-36.8686
  0
LINE
  8
0
 10
-81.1314
 20
-36.8686
 11
-80.8
 21
-36.6143
  0
LINE
  8
0
 10
-80.8
 20
-36.6143
 11
-80.4141
 21
-36.4545
  0
LINE
  8
0
 10
-80.4141
 20
-36.4545
 11
-80
 21
-36.4
  0
LINE
  8
0
 10
-80
 20
-36.4
 11
-79.5859
 21
-36.4545
  0
LINE
  8
0
 10
-79.5859
 20
-36.4545
 11
-79.2
 21
-36.6143
  0
LINE
  8
0
 10
-79.2
 20
-36.6143
 11
-78.8686
 21
-36.8686
  0
LINE
  8
0
 10
-78.8686
 20
-36.8686
 11
-78.6143
 21
-37.2
  0
LINE
  8
0
 10
-78.6143
 20
-37.2
 11
-78.4545
 21
-37.5859
  0
LINE
  8
0
 10
-78.4545
 20
-37.5859
 11
-78.4
 21
-38
  0
LINE
  8
0
 10
-78.4
 20
-38
 11
-78.4545
 21
-38.4141
  0
LINE
  8
0
 10
-78.4545
 20
-38.4141
 11
-78.6143
 21
-38.8
  0
LINE
  8
0
 10
-78.6143
 20
-38.8
 11
-78.8686
 21
-39.1314
  0
LINE
  8
0
 10
-78.8686
 20
-39.1314
 11
-79.2
 21
-39.3856
  0
LINE
  8
0
 10
-79.2
 20
-39.3856
 11
-79.5859
 21
-39.5455
  0
LINE
  8
0
 10
-79.5859
 20
-39.5455
 11
-80
 21
-39.6
  0
LINE
  8
0
 10
-80
 20
-39.6
 11
-80.4141
 21
-39.5455
  0
ENDSEC
  0
SECTION
  2
OBJECTS
  0
DICTIONARY
  0
ENDSEC
  0
EOF
