  0
SECTION
  2
BLOCKS
  0
ENDSEC
  0
SECTION
  2
ENTITIES
  0
LINE
  8
0
 10
22.9386
 20
-44.9261
 11
23.8541
 21
-44.7063
  0
LINE
  8
0
 10
23.8541
 20
-44.7063
 11
24.7239
 21
-44.346
  0
LINE
  8
0
 10
24.7239
 20
-44.346
 11
25.5267
 21
-43.8541
  0
LINE
  8
0
 10
25.5267
 20
-43.8541
 11
26.2426
 21
-43.2426
  0
LINE
  8
0
 10
26.2426
 20
-43.2426
 11
26.8541
 21
-42.5267
  0
LINE
  8
0
 10
26.8541
 20
-42.5267
 11
27.346
 21
-41.7239
  0
LINE
  8
0
 10
27.346
 20
-41.7239
 11
27.7063
 21
-40.8541
  0
LINE
  8
0
 10
27.7063
 20
-40.8541
 11
27.9261
 21
-39.9386
  0
LINE
  8
0
 10
27.9261
 20
-39.9386
 11
28
 21
-39
  0
LINE
  8
0
 10
28
 20
-39
 11
28
 21
39
  0
LINE
  8
0
 10
28
 20
39
 11
27.9261
 21
39.9386
  0
LINE
  8
0
 10
27.9261
 20
39.9386
 11
27.7063
 21
40.8541
  0
LINE
  8
0
 10
27.7063
 20
40.8541
 11
27.346
 21
41.7239
  0
LINE
  8
0
 10
27.346
 20
41.7239
 11
26.8541
 21
42.5267
  0
LINE
  8
0
 10
26.8541
 20
42.5267
 11
26.2426
 21
43.2426
  0
LINE
  8
0
 10
26.2426
 20
43.2426
 11
25.5267
 21
43.8541
  0
LINE
  8
0
 10
25.5267
 20
43.8541
 11
24.7239
 21
44.346
  0
LINE
  8
0
 10
24.7239
 20
44.346
 11
23.8541
 21
44.7063
  0
LINE
  8
0
 10
23.8541
 20
44.7063
 11
22.9386
 21
44.9261
  0
LINE
  8
0
 10
22.9386
 20
44.9261
 11
22
 21
45
  0
LINE
  8
0
 10
22
 20
45
 11
-79
 21
45
  0
LINE
  8
0
 10
-79
 20
45
 11
-79.9386
 21
44.9261
  0
LINE
  8
0
 10
-79.9386
 20
44.9261
 11
-80.8541
 21
44.7063
  0
LINE
  8
0
 10
-80.8541
 20
44.7063
 11
-81.7239
 21
44.346
  0
LINE
  8
0
 10
-81.7239
 20
44.346
 11
-82.5267
 21
43.8541
  0
LINE
  8
0
 10
-82.5267
 20
43.8541
 11
-83.2426
 21
43.2426
  0
LINE
  8
0
 10
-83.2426
 20
43.2426
 11
-83.8541
 21
42.5267
  0
LINE
  8
0
 10
-83.8541
 20
42.5267
 11
-84.346
 21
41.7239
  0
LINE
  8
0
 10
-84.346
 20
41.7239
 11
-84.7063
 21
40.8541
  0
LINE
  8
0
 10
-84.7063
 20
40.8541
 11
-84.9261
 21
39.9386
  0
LINE
  8
0
 10
-84.9261
 20
39.9386
 11
-85
 21
39
  0
LINE
  8
0
 10
-85
 20
39
 11
-85
 21
-39
  0
LINE
  8
0
 10
-85
 20
-39
 11
-84.9261
 21
-39.9386
  0
LINE
  8
0
 10
-84.9261
 20
-39.9386
 11
-84.7063
 21
-40.8541
  0
LINE
  8
0
 10
-84.7063
 20
-40.8541
 11
-84.346
 21
-41.7239
  0
LINE
  8
0
 10
-84.346
 20
-41.7239
 11
-83.8541
 21
-42.5267
  0
LINE
  8
0
 10
-83.8541
 20
-42.5267
 11
-83.2426
 21
-43.2426
  0
LINE
  8
0
 10
-83.2426
 20
-43.2426
 11
-82.5267
 21
-43.8541
  0
LINE
  8
0
 10
-82.5267
 20
-43.8541
 11
-81.7239
 21
-44.346
  0
LINE
  8
0
 10
-81.7239
 20
-44.346
 11
-80.8541
 21
-44.7063
  0
LINE
  8
0
 10
-80.8541
 20
-44.7063
 11
-79.9386
 21
-44.9261
  0
LINE
  8
0
 10
-79.9386
 20
-44.9261
 11
-79
 21
-45
  0
LINE
  8
0
 10
-79
 20
-45
 11
22
 21
-45
  0
LINE
  8
0
 10
22
 20
-45
 11
22.9386
 21
-44.9261
  0
LINE
  8
0
 10
22.5859
 20
36.4545
 11
22.2
 21
36.6143
  0
LINE
  8
0
 10
22.2
 20
36.6143
 11
21.8686
 21
36.8686
  0
LINE
  8
0
 10
21.8686
 20
36.8686
 11
21.6143
 21
37.2
  0
LINE
  8
0
 10
21.6143
 20
37.2
 11
21.4545
 21
37.5859
  0
LINE
  8
0
 10
21.4545
 20
37.5859
 11
21.4
 21
38
  0
LINE
  8
0
 10
21.4
 20
38
 11
21.4545
 21
38.4141
  0
LINE
  8
0
 10
21.4545
 20
38.4141
 11
21.6143
 21
38.8
  0
LINE
  8
0
 10
21.6143
 20
38.8
 11
21.8686
 21
39.1314
  0
LINE
  8
0
 10
21.8686
 20
39.1314
 11
22.2
 21
39.3856
  0
LINE
  8
0
 10
22.2
 20
39.3856
 11
22.5859
 21
39.5455
  0
LINE
  8
0
 10
22.5859
 20
39.5455
 11
23
 21
39.6
  0
LINE
  8
0
 10
23
 20
39.6
 11
23.4141
 21
39.5455
  0
LINE
  8
0
 10
23.4141
 20
39.5455
 11
23.8
 21
39.3856
  0
LINE
  8
0
 10
23.8
 20
39.3856
 11
24.1314
 21
39.1314
  0
LINE
  8
0
 10
24.1314
 20
39.1314
 11
24.3856
 21
38.8
  0
LINE
  8
0
 10
24.3856
 20
38.8
 11
24.5455
 21
38.4141
  0
LINE
  8
0
 10
24.5455
 20
38.4141
 11
24.6
 21
38
  0
LINE
  8
0
 10
24.6
 20
38
 11
24.5455
 21
37.5859
  0
LINE
  8
0
 10
24.5455
 20
37.5859
 11
24.3856
 21
37.2
  0
LINE
  8
0
 10
24.3856
 20
37.2
 11
24.1314
 21
36.8686
  0
LINE
  8
0
 10
24.1314
 20
36.8686
 11
23.8
 21
36.6143
  0
LINE
  8
0
 10
23.8
 20
36.6143
 11
23.4141
 21
36.4545
  0
LINE
  8
0
 10
23.4141
 20
36.4545
 11
23
 21
36.4
  0
LINE
  8
0
 10
23
 20
36.4
 11
22.5859
 21
36.4545
  0
LINE
  8
0
 10
-80.4141
 20
36.4545
 11
-80.8
 21
36.6143
  0
LINE
  8
0
 10
-80.8
 20
36.6143
 11
-81.1314
 21
36.8686
  0
LINE
  8
0
 10
-81.1314
 20
36.8686
 11
-81.3856
 21
37.2
  0
LINE
  8
0
 10
-81.3856
 20
37.2
 11
-81.5455
 21
37.5859
  0
LINE
  8
0
 10
-81.5455
 20
37.5859
 11
-81.6
 21
38
  0
LINE
  8
0
 10
-81.6
 20
38
 11
-81.5455
 21
38.4141
  0
LINE
  8
0
 10
-81.5455
 20
38.4141
 11
-81.3856
 21
38.8
  0
LINE
  8
0
 10
-81.3856
 20
38.8
 11
-81.1314
 21
39.1314
  0
LINE
  8
0
 10
-81.1314
 20
39.1314
 11
-80.8
 21
39.3856
  0
LINE
  8
0
 10
-80.8
 20
39.3856
 11
-80.4141
 21
39.5455
  0
LINE
  8
0
 10
-80.4141
 20
39.5455
 11
-80
 21
39.6
  0
LINE
  8
0
 10
-80
 20
39.6
 11
-79.5859
 21
39.5455
  0
LINE
  8
0
 10
-79.5859
 20
39.5455
 11
-79.2
 21
39.3856
  0
LINE
  8
0
 10
-79.2
 20
39.3856
 11
-78.8686
 21
39.1314
  0
LINE
  8
0
 10
-78.8686
 20
39.1314
 11
-78.6143
 21
38.8
  0
LINE
  8
0
 10
-78.6143
 20
38.8
 11
-78.4545
 21
38.4141
  0
LINE
  8
0
 10
-78.4545
 20
38.4141
 11
-78.4
 21
38
  0
LINE
  8
0
 10
-78.4
 20
38
 11
-78.4545
 21
37.5859
  0
LINE
  8
0
 10
-78.4545
 20
37.5859
 11
-78.6143
 21
37.2
  0
LINE
  8
0
 10
-78.6143
 20
37.2
 11
-78.8686
 21
36.8686
  0
LINE
  8
0
 10
-78.8686
 20
36.8686
 11
-79.2
 21
36.6143
  0
LINE
  8
0
 10
-79.2
 20
36.6143
 11
-79.5859
 21
36.4545
  0
LINE
  8
0
 10
-79.5859
 20
36.4545
 11
-80
 21
36.4
  0
LINE
  8
0
 10
-80
 20
36.4
 11
-80.4141
 21
36.4545
  0
LINE
  8
0
 10
-74
 20
-10
 11
-74
 21
10
  0
LINE
  8
0
 10
-74
 20
10
 11
-66
 21
10
  0
LINE
  8
0
 10
-66
 20
10
 11
-66
 21
-10
  0
LINE
  8
0
 10
-66
 20
-10
 11
-74
 21
-10
  0
LINE
  8
0
 10
-24.8106
 20
4.54088
 11
-25.1
 21
4.66077
  0
LINE
  8
0
 10
-25.1
 20
4.66077
 11
-25.3485
 21
4.85147
  0
LINE
  8
0
 10
-25.3485
 20
4.85147
 11
-25.5392
 21
5.09999
  0
LINE
  8
0
 10
-25.5392
 20
5.09999
 11
-25.6591
 21
5.3894
  0
LINE
  8
0
 10
-25.6591
 20
5.3894
 11
-25.7
 21
5.7
  0
LINE
  8
0
 10
-25.7
 20
5.7
 11
-25.6591
 21
6.01057
  0
LINE
  8
0
 10
-25.6591
 20
6.01057
 11
-25.5392
 21
6.29999
  0
LINE
  8
0
 10
-25.5392
 20
6.29999
 11
-25.3485
 21
6.54852
  0
LINE
  8
0
 10
-25.3485
 20
6.54852
 11
-25.1
 21
6.73923
  0
LINE
  8
0
 10
-25.1
 20
6.73923
 11
-24.8106
 21
6.8591
  0
LINE
  8
0
 10
-24.8106
 20
6.8591
 11
-24.5
 21
6.89999
  0
LINE
  8
0
 10
-24.5
 20
6.89999
 11
-24.1894
 21
6.8591
  0
LINE
  8
0
 10
-24.1894
 20
6.8591
 11
-23.9
 21
6.73923
  0
LINE
  8
0
 10
-23.9
 20
6.73923
 11
-23.6515
 21
6.54852
  0
LINE
  8
0
 10
-23.6515
 20
6.54852
 11
-23.4608
 21
6.29999
  0
LINE
  8
0
 10
-23.4608
 20
6.29999
 11
-23.3409
 21
6.01057
  0
LINE
  8
0
 10
-23.3409
 20
6.01057
 11
-23.3
 21
5.7
  0
LINE
  8
0
 10
-23.3
 20
5.7
 11
-23.3409
 21
5.3894
  0
LINE
  8
0
 10
-23.3409
 20
5.3894
 11
-23.4608
 21
5.09999
  0
LINE
  8
0
 10
-23.4608
 20
5.09999
 11
-23.6515
 21
4.85147
  0
LINE
  8
0
 10
-23.6515
 20
4.85147
 11
-23.9
 21
4.66077
  0
LINE
  8
0
 10
-23.9
 20
4.66077
 11
-24.1894
 21
4.54088
  0
LINE
  8
0
 10
-24.1894
 20
4.54088
 11
-24.5
 21
4.5
  0
LINE
  8
0
 10
-24.5
 20
4.5
 11
-24.8106
 21
4.54088
  0
LINE
  8
0
 10
22.1894
 20
4.54088
 11
21.9
 21
4.66077
  0
LINE
  8
0
 10
21.9
 20
4.66077
 11
21.6515
 21
4.85147
  0
LINE
  8
0
 10
21.6515
 20
4.85147
 11
21.4608
 21
5.09999
  0
LINE
  8
0
 10
21.4608
 20
5.09999
 11
21.3409
 21
5.3894
  0
LINE
  8
0
 10
21.3409
 20
5.3894
 11
21.3
 21
5.7
  0
LINE
  8
0
 10
21.3
 20
5.7
 11
21.3409
 21
6.01057
  0
LINE
  8
0
 10
21.3409
 20
6.01057
 11
21.4608
 21
6.29999
  0
LINE
  8
0
 10
21.4608
 20
6.29999
 11
21.6515
 21
6.54852
  0
LINE
  8
0
 10
21.6515
 20
6.54852
 11
21.9
 21
6.73923
  0
LINE
  8
0
 10
21.9
 20
6.73923
 11
22.1894
 21
6.8591
  0
LINE
  8
0
 10
22.1894
 20
6.8591
 11
22.5
 21
6.89999
  0
LINE
  8
0
 10
22.5
 20
6.89999
 11
22.8106
 21
6.8591
  0
LINE
  8
0
 10
22.8106
 20
6.8591
 11
23.1
 21
6.73923
  0
LINE
  8
0
 10
23.1
 20
6.73923
 11
23.3485
 21
6.54852
  0
LINE
  8
0
 10
23.3485
 20
6.54852
 11
23.5392
 21
6.29999
  0
LINE
  8
0
 10
23.5392
 20
6.29999
 11
23.6591
 21
6.01057
  0
LINE
  8
0
 10
23.6591
 20
6.01057
 11
23.7
 21
5.7
  0
LINE
  8
0
 10
23.7
 20
5.7
 11
23.6591
 21
5.3894
  0
LINE
  8
0
 10
23.6591
 20
5.3894
 11
23.5392
 21
5.09999
  0
LINE
  8
0
 10
23.5392
 20
5.09999
 11
23.3485
 21
4.85147
  0
LINE
  8
0
 10
23.3485
 20
4.85147
 11
23.1
 21
4.66077
  0
LINE
  8
0
 10
23.1
 20
4.66077
 11
22.8106
 21
4.54088
  0
LINE
  8
0
 10
22.8106
 20
4.54088
 11
22.5
 21
4.5
  0
LINE
  8
0
 10
22.5
 20
4.5
 11
22.1894
 21
4.54088
  0
LINE
  8
0
 10
-24.8106
 20
-6.8591
 11
-25.1
 21
-6.73923
  0
LINE
  8
0
 10
-25.1
 20
-6.73923
 11
-25.3485
 21
-6.54852
  0
LINE
  8
0
 10
-25.3485
 20
-6.54852
 11
-25.5392
 21
-6.29999
  0
LINE
  8
0
 10
-25.5392
 20
-6.29999
 11
-25.6591
 21
-6.01057
  0
LINE
  8
0
 10
-25.6591
 20
-6.01057
 11
-25.7
 21
-5.7
  0
LINE
  8
0
 10
-25.7
 20
-5.7
 11
-25.6591
 21
-5.3894
  0
LINE
  8
0
 10
-25.6591
 20
-5.3894
 11
-25.5392
 21
-5.09999
  0
LINE
  8
0
 10
-25.5392
 20
-5.09999
 11
-25.3485
 21
-4.85147
  0
LINE
  8
0
 10
-25.3485
 20
-4.85147
 11
-25.1
 21
-4.66077
  0
LINE
  8
0
 10
-25.1
 20
-4.66077
 11
-24.8106
 21
-4.54088
  0
LINE
  8
0
 10
-24.8106
 20
-4.54088
 11
-24.5
 21
-4.5
  0
LINE
  8
0
 10
-24.5
 20
-4.5
 11
-24.1894
 21
-4.54088
  0
LINE
  8
0
 10
-24.1894
 20
-4.54088
 11
-23.9
 21
-4.66077
  0
LINE
  8
0
 10
-23.9
 20
-4.66077
 11
-23.6515
 21
-4.85147
  0
LINE
  8
0
 10
-23.6515
 20
-4.85147
 11
-23.4608
 21
-5.09999
  0
LINE
  8
0
 10
-23.4608
 20
-5.09999
 11
-23.3409
 21
-5.3894
  0
LINE
  8
0
 10
-23.3409
 20
-5.3894
 11
-23.3
 21
-5.7
  0
LINE
  8
0
 10
-23.3
 20
-5.7
 11
-23.3409
 21
-6.01057
  0
LINE
  8
0
 10
-23.3409
 20
-6.01057
 11
-23.4608
 21
-6.29999
  0
LINE
  8
0
 10
-23.4608
 20
-6.29999
 11
-23.6515
 21
-6.54852
  0
LINE
  8
0
 10
-23.6515
 20
-6.54852
 11
-23.9
 21
-6.73923
  0
LINE
  8
0
 10
-23.9
 20
-6.73923
 11
-24.1894
 21
-6.8591
  0
LINE
  8
0
 10
-24.1894
 20
-6.8591
 11
-24.5
 21
-6.89999
  0
LINE
  8
0
 10
-24.5
 20
-6.89999
 11
-24.8106
 21
-6.8591
  0
LINE
  8
0
 10
22.1894
 20
-6.8591
 11
21.9
 21
-6.73923
  0
LINE
  8
0
 10
21.9
 20
-6.73923
 11
21.6515
 21
-6.54852
  0
LINE
  8
0
 10
21.6515
 20
-6.54852
 11
21.4608
 21
-6.29999
  0
LINE
  8
0
 10
21.4608
 20
-6.29999
 11
21.3409
 21
-6.01057
  0
LINE
  8
0
 10
21.3409
 20
-6.01057
 11
21.3
 21
-5.7
  0
LINE
  8
0
 10
21.3
 20
-5.7
 11
21.3409
 21
-5.3894
  0
LINE
  8
0
 10
21.3409
 20
-5.3894
 11
21.4608
 21
-5.09999
  0
LINE
  8
0
 10
21.4608
 20
-5.09999
 11
21.6515
 21
-4.85147
  0
LINE
  8
0
 10
21.6515
 20
-4.85147
 11
21.9
 21
-4.66077
  0
LINE
  8
0
 10
21.9
 20
-4.66077
 11
22.1894
 21
-4.54088
  0
LINE
  8
0
 10
22.1894
 20
-4.54088
 11
22.5
 21
-4.5
  0
LINE
  8
0
 10
22.5
 20
-4.5
 11
22.8106
 21
-4.54088
  0
LINE
  8
0
 10
22.8106
 20
-4.54088
 11
23.1
 21
-4.66077
  0
LINE
  8
0
 10
23.1
 20
-4.66077
 11
23.3485
 21
-4.85147
  0
LINE
  8
0
 10
23.3485
 20
-4.85147
 11
23.5392
 21
-5.09999
  0
LINE
  8
0
 10
23.5392
 20
-5.09999
 11
23.6591
 21
-5.3894
  0
LINE
  8
0
 10
23.6591
 20
-5.3894
 11
23.7
 21
-5.7
  0
LINE
  8
0
 10
23.7
 20
-5.7
 11
23.6591
 21
-6.01057
  0
LINE
  8
0
 10
23.6591
 20
-6.01057
 11
23.5392
 21
-6.29999
  0
LINE
  8
0
 10
23.5392
 20
-6.29999
 11
23.3485
 21
-6.54852
  0
LINE
  8
0
 10
23.3485
 20
-6.54852
 11
23.1
 21
-6.73923
  0
LINE
  8
0
 10
23.1
 20
-6.73923
 11
22.8106
 21
-6.8591
  0
LINE
  8
0
 10
22.8106
 20
-6.8591
 11
22.5
 21
-6.89999
  0
LINE
  8
0
 10
22.5
 20
-6.89999
 11
22.1894
 21
-6.8591
  0
LINE
  8
0
 10
22.5859
 20
-39.5455
 11
22.2
 21
-39.3856
  0
LINE
  8
0
 10
22.2
 20
-39.3856
 11
21.8686
 21
-39.1314
  0
LINE
  8
0
 10
21.8686
 20
-39.1314
 11
21.6143
 21
-38.8
  0
LINE
  8
0
 10
21.6143
 20
-38.8
 11
21.4545
 21
-38.4141
  0
LINE
  8
0
 10
21.4545
 20
-38.4141
 11
21.4
 21
-38
  0
LINE
  8
0
 10
21.4
 20
-38
 11
21.4545
 21
-37.5859
  0
LINE
  8
0
 10
21.4545
 20
-37.5859
 11
21.6143
 21
-37.2
  0
LINE
  8
0
 10
21.6143
 20
-37.2
 11
21.8686
 21
-36.8686
  0
LINE
  8
0
 10
21.8686
 20
-36.8686
 11
22.2
 21
-36.6143
  0
LINE
  8
0
 10
22.2
 20
-36.6143
 11
22.5859
 21
-36.4545
  0
LINE
  8
0
 10
22.5859
 20
-36.4545
 11
23
 21
-36.4
  0
LINE
  8
0
 10
23
 20
-36.4
 11
23.4141
 21
-36.4545
  0
LINE
  8
0
 10
23.4141
 20
-36.4545
 11
23.8
 21
-36.6143
  0
LINE
  8
0
 10
23.8
 20
-36.6143
 11
24.1314
 21
-36.8686
  0
LINE
  8
0
 10
24.1314
 20
-36.8686
 11
24.3856
 21
-37.2
  0
LINE
  8
0
 10
24.3856
 20
-37.2
 11
24.5455
 21
-37.5859
  0
LINE
  8
0
 10
24.5455
 20
-37.5859
 11
24.6
 21
-38
  0
LINE
  8
0
 10
24.6
 20
-38
 11
24.5455
 21
-38.4141
  0
LINE
  8
0
 10
24.5455
 20
-38.4141
 11
24.3856
 21
-38.8
  0
LINE
  8
0
 10
24.3856
 20
-38.8
 11
24.1314
 21
-39.1314
  0
LINE
  8
0
 10
24.1314
 20
-39.1314
 11
23.8
 21
-39.3856
  0
LINE
  8
0
 10
23.8
 20
-39.3856
 11
23.4141
 21
-39.5455
  0
LINE
  8
0
 10
23.4141
 20
-39.5455
 11
23
 21
-39.6
  0
LINE
  8
0
 10
23
 20
-39.6
 11
22.5859
 21
-39.5455
  0
LINE
  8
0
 10
-80.4141
 20
-39.5455
 11
-80.8
 21
-39.3856
  0
LINE
  8
0
 10
-80.8
 20
-39.3856
 11
-81.1314
 21
-39.1314
  0
LINE
  8
0
 10
-81.1314
 20
-39.1314
 11
-81.3856
 21
-38.8
  0
LINE
  8
0
 10
-81.3856
 20
-38.8
 11
-81.5455
 21
-38.4141
  0
LINE
  8
0
 10
-81.5455
 20
-38.4141
 11
-81.6
 21
-38
  0
LINE
  8
0
 10
-81.6
 20
-38
 11
-81.5455
 21
-37.5859
  0
LINE
  8
0
 10
-81.5455
 20
-37.5859
 11
-81.3856
 21
-37.2
  0
LINE
  8
0
 10
-81.3856
 20
-37.2
 11
-81.1314
 21
-36.8686
  0
LINE
  8
0
 10
-81.1314
 20
-36.8686
 11
-80.8
 21
-36.6143
  0
LINE
  8
0
 10
-80.8
 20
-36.6143
 11
-80.4141
 21
-36.4545
  0
LINE
  8
0
 10
-80.4141
 20
-36.4545
 11
-80
 21
-36.4
  0
LINE
  8
0
 10
-80
 20
-36.4
 11
-79.5859
 21
-36.4545
  0
LINE
  8
0
 10
-79.5859
 20
-36.4545
 11
-79.2
 21
-36.6143
  0
LINE
  8
0
 10
-79.2
 20
-36.6143
 11
-78.8686
 21
-36.8686
  0
LINE
  8
0
 10
-78.8686
 20
-36.8686
 11
-78.6143
 21
-37.2
  0
LINE
  8
0
 10
-78.6143
 20
-37.2
 11
-78.4545
 21
-37.5859
  0
LINE
  8
0
 10
-78.4545
 20
-37.5859
 11
-78.4
 21
-38
  0
LINE
  8
0
 10
-78.4
 20
-38
 11
-78.4545
 21
-38.4141
  0
LINE
  8
0
 10
-78.4545
 20
-38.4141
 11
-78.6143
 21
-38.8
  0
LINE
  8
0
 10
-78.6143
 20
-38.8
 11
-78.8686
 21
-39.1314
  0
LINE
  8
0
 10
-78.8686
 20
-39.1314
 11
-79.2
 21
-39.3856
  0
LINE
  8
0
 10
-79.2
 20
-39.3856
 11
-79.5859
 21
-39.5455
  0
LINE
  8
0
 10
-79.5859
 20
-39.5455
 11
-80
 21
-39.6
  0
LINE
  8
0
 10
-80
 20
-39.6
 11
-80.4141
 21
-39.5455
  0
ENDSEC
  0
SECTION
  2
OBJECTS
  0
DICTIONARY
  0
ENDSEC
  0
EOF
